<svg version="1.2" xmlns="http://www.w3.org/2000/svg" viewBox="0 0 2399 731" width="2399" height="731">
	<title>Modular_Windows_logo-svg</title>
	<style>
		.s0 { fill: #47a23f } 
		.s1 { fill: #e56a54 } 
		.s2 { fill: #7474c1 } 
		.s3 { fill: #ffffff } 
	</style>
	<g id="g223">
		<path id="path925" class="s0" d="m505.6 56.1l63.9-47.3 75.4 46.5-64.8 47.8z"/>
		<path id="path923" class="s0" d="m579.9 128.7l53.1-39.9 67.3 38.5-55.8 41.4z"/>
		<path id="path921" class="s0" d="m639.2 199.5l44.3-31.3 52.5 30.9-45.5 33.2z"/>
		<path id="path919" class="s0" d="m677.1 271.1l37.4-27.3 42.7 26.1-36.4 26.8z"/>
		<path id="path917" class="s0" d="m711.5 336.7l27-21.3 32.1 19.6-26.6 19.9z"/>
		<path id="path915" class="s0" d="m737 402.8l19.3-14.5 23.2 14.2-18.9 13.3z"/>
		<path id="path913" class="s0" d="m451.5 154.3l63.4-48.1 76.7 46.9-64.8 47.8z"/>
		<path id="path911" class="s0" d="m528.9 220.5l54-40.5 65.6 39.5-54 40.5z"/>
		<path id="path909" class="s0" d="m587.9 292.6l43.3-33 52.5 30.9-42.4 32.5z"/>
		<path id="path907" class="s0" d="m626 360.7l36.5-26.9 43.2 24.8-38.2 27.8z"/>
		<path id="path905" class="s0" d="m692.5 445.8l-34.3-19.4 26.6-20 34.7 18.1z"/>
		<path id="path903" class="s0" d="m685.9 492.4l18.9-13.2 22.8 13.4-19.3 14.6z"/>
		<path id="path901" class="s0" d="m398.3 246.2l65.3-46.9 76.2 46-64.8 47.8z"/>
		<path id="path899" class="s0" d="m539.8 349.3l55.7-41.5-65.9-38.1-54.5 39.6z"/>
		<path id="path897" class="s0" d="m578.7 348.7l-45.5 33.2 51.5 29.2 45.1-31.8z"/>
		<path id="path895" class="s0" d="m637.9 535.1l-34.4-19.4 29.2-21.5 33.5 20z"/>
		<path id="path893" class="s0" d="m613.7 475.2l38.2-27.8-45.4-24.6-35.6 26.3z"/>
		<path id="path891" class="s0" d="m655.5 597.7l18.4-14.1-22.4-14.8-19.3 14.6z"/>
		<path id="path889" class="s1" d="m467.5 40l-21.3-10.8 1.1-26.1 21.8 11.7z"/>
		<path id="path887" class="s1" d="m394.2 43.1l30.6 16.9-0.9 38.6-32.8-16.8z"/>
		<path id="path885" class="s1" d="m342.8 90l42.1 23.1-2.9 49-41.6-22.2z"/>
		<path id="path883" class="s1" d="m320.7 57.8l-2.2 38.2-32-17.4 1.4-37.7z"/>
		<path id="path881" class="s1" d="m364.5 11.7l-3.3 26.2-20.9-12.2 2.5-25.7z"/>
		<path id="path879" class="s1" d="m258.3 11.8l-1.1 26-22.1-10.3 2-26.5z"/>
		<path id="path877" class="s1" d="m344 170.2l-2.2 60.1-50.9-26 2.3-60.2z"/>
		<path id="path875" class="s1" d="m279.4 108.2l-1.9 50.7-41.5-19.9 2.2-52.1z"/>
		<path id="path873" class="s1" d="m214.5 57.9l-1.3 37.7-33.3-17.7 3.7-35.6z"/>
		<path id="path871" class="s1" d="m311.6 242l-3 76.8-62.4-32.1 2.6-75.4z"/>
		<path id="path869" class="s1" d="m237.2 167.2l-3.1 60.6-49.8-24.3 3.9-61.2z"/>
		<path id="path867" class="s1" d="m173.7 109.2l-1.9 50.7-43.4-21.1 2.4-49.9z"/>
		<path id="path865" class="s1" d="m131 167.3l-2.6 61.5-50.3-25.2 3.1-60.7z"/>
		<path id="path863" class="s1" d="m205.8 240.7l-2.7 75.5-62.7-30.8 4.3-76.4z"/>
		<path id="path861" class="s1" d="m294.7 326.8l-2.7 89.3-72-34.6 1-88.4z"/>
		<path id="path859" class="s1" d="m98.7 241.3l-1.4 73.6-63.6-30.2 3.1-74.6z"/>
		<path id="path857" class="s1" d="m189 327.8l-3.2 88.4-72.4-35.5 1.8-88.8z"/>
		<path id="path855" class="s1" d="m75.7 327.4l-1.9 88.8-73.8-35.9 2.8-87.1z"/>
		<path id="path853" class="s2" d="m465.4 408.4l-76.3 49.8 12.1 75 76.4-47.6z"/>
		<path id="path851" class="s2" d="m535.7 572.2l-13.6-77.6-73.9 46.1 10.2 79.6z"/>
		<path id="path849" class="s2" d="m597.4 667l-14.6-79.3-74.1 49.7 14 76.2z"/>
		<path id="path847" class="s2" d="m497.2 691.4l-10.9-68.8-65.2 41.1 12.1 67z"/>
		<path id="path845" class="s2" d="m439.3 601.3l-10.7-66.6-64.7 42 10.2 65.7z"/>
		<path id="path843" class="s2" d="m394.7 642l-51.7 34.5 9.9 53.2 52.7-32.8z"/>
		<path id="path841" class="s2" d="m347.1 609.5l-10.4-54-50.5 32.6 7.7 53.3z"/>
		<path id="path839" class="s2" d="m321.5 691.2l-5.9-46.2-42.3 26.7 6.7 43.5z"/>
		<path id="path837" class="s2" d="m384.9 514.9l-11.3-67.4-64.5 44.2 10.9 63z"/>
		<path id="path835" class="s2" d="m292.6 523.2l-8.7-55.1-52.2 33.6 9.5 52.3z"/>
		<path id="path833" class="s2" d="m265.6 602.3l-6.7-43.5-43.2 27.2 7.1 42.2z"/>
		<path id="path831" class="s2" d="m245.6 679.7l-5.6-33.8-31.1 20.3 4.2 33.3z"/>
		<path id="path829" class="s2" d="m210.2 516.5l-6.8-45.8-42.6 28.1 6.1 42.7z"/>
		<path id="path827" class="s2" d="m188.5 594.8l-5.7-35.9-33.2 22.6 6.9 31.8z"/>
		<path id="path825" class="s2" d="m170.7 664l-3.2-23.6-21.5 14.8 2.2 21.8z"/>
		<path id="path823" class="s2" d="m133 506.8l-4.8-36.5-32 20.7 4.8 34.3z"/>
		<path id="path821" class="s2" d="m36.4 501.4l-4.5-21.7 22.9-14.4 2.4 24.1z"/>
		<path id="Unnamed" class="s2" d="m114.9 577.3l-4.6-23.9-22.4 15.2 3.6 22.2z"/>
		<path id="MODULAR" class="s3" aria-label="MODULAR"  d="m980.1 360h-5l-78.2-152.8v121.3q0 16.8 4 20.9 5.5 5.6 17.5 5.6h7.2v5h-70.5v-5h7.1q12.9 0 18.3-6.9 3.2-4.3 3.2-19.6v-118.6q0-12-2.9-17.4-2.1-3.9-7.8-6.4-5.5-2.7-17.9-2.7v-5h57.3l73.5 142.1 72.2-142.1h57.4v5h-7q-13 0-18.4 7-3.3 4.2-3.3 19.5v118.6q0 16.8 4.2 20.9 5.5 5.6 17.5 5.6h7v5h-86v-5h7.1q13 0 18.3-6.9 3.2-4.3 3.2-19.6v-121.3zm253.7-185.7q39.5 0 68.3 26.9 28.9 26.8 28.9 67 0 41.4-29.1 68.7-29.1 27.3-70.5 27.3-41.8 0-70.3-26.7-28.4-26.6-28.4-68.9 0-43.3 32.9-70.6 28.5-23.7 68.2-23.7zm-2.8 9.8q-27.2 0-43.6 18.1-20.5 22.5-20.5 65.8 0 44.5 21.2 68.5 16.3 18.2 43 18.2 28.6 0 47.1-20 18.6-19.9 18.6-62.9 0-46.6-20.4-69.5-16.4-18.2-45.4-18.2zm207.5 175.9h-90.4v-4.9h7.6q12.8 0 18.2-7.4 3.3-4.4 3.3-19.8v-117.3q0-17-4.2-21.3-5.8-5.9-17.3-5.9h-7.6v-4.9h82.4q45.4 0 69 9.2 23.7 9.2 38 30.8 14.5 21.6 14.5 49.8 0 37.9-25.7 63.3-28.8 28.4-87.8 28.4zm-32.7-167.5v154.4q19 3.8 31.8 3.8 34.7 0 57.5-21.9 22.9-21.8 22.9-59.2 0-37.6-22.9-59.3-22.8-21.7-58.6-21.7-13.5 0-30.7 3.9zm311.4-9.1h-7.6v-4.9h71.6v4.9h-7.6q-11.9 0-18.4 9-3.1 4.1-3.1 19.3v73.6q0 27.3-6.1 42.5-6 15-23.8 25.8-17.6 10.7-48 10.7-33.2 0-50.4-10.3-17.1-10.3-24.3-27.7-4.8-11.9-4.8-44.7v-71q0-16.7-5.2-22-5.1-5.2-16.6-5.2h-7.6v-4.9h87.5v4.9h-7.8q-12.5 0-17.9 7.1-3.7 4.8-3.7 20.1v79.1q0 10.6 2.1 24.3 2.2 13.6 7.9 21.3 5.7 7.6 16.3 12.5 10.7 5 26.3 5 19.8 0 35.5-7.8 15.7-7.7 21.3-19.8 5.9-12.2 5.9-41.1v-73.5q0-17-4.2-21.3-5.8-5.9-17.3-5.9zm242.6 126.4l4.9 1-17.3 49.2h-156.8v-4.9h7.6q12.9 0 18.4-7.5 3.1-4.3 3.1-19.8v-117.2q0-17-4.1-21.3-5.9-5.9-17.4-5.9h-7.6v-4.9h91.7v4.9q-16.1-0.1-22.7 2.7-6.4 2.8-8.8 7.1-2.4 4.3-2.4 20.5v114.1q0 11.1 2.4 15.2 1.8 2.8 5.5 4.2 3.8 1.3 23.3 1.3h14.8q23.3 0 32.7-3.1 9.4-3 17.2-10.8 7.7-7.9 15.5-24.8zm163.7 15.5l-12.3-26.1h-78.4l-13.7 28.7q-5.1 10.6-5.1 15.8 0 4.1 4.3 7.4 4.5 3 19.1 4v4.9h-63.7v-4.9q12.7-2 16.4-5.2 7.6-6.5 16.9-26.2l71.2-149.4h5.2l70.5 151q8.5 18.3 15.4 23.7 7 5.4 19.4 6.1v4.9h-79.9v-4.9q12.1-0.6 16.3-3.6 4.3-3.1 4.3-7.5 0-5.9-5.9-18.7zm-86.1-36h69.6l-34.3-73.3zm361.3 65.7v5h-54l-68.6-84.9q-7.6 0.2-12.4 0.2-1.9 0-4.1 0-2.3-0.1-4.7-0.2v52.7q0 17.2 4.2 21.3 5.7 5.9 17 5.9h8v5h-86.8v-5h7.6q12.9 0 18.4-7.5 3.1-4.1 3.1-19.7v-117.3q0-17.1-4.2-21.3-5.8-5.9-17.3-5.9h-7.6v-4.9h73.8q32.2 0 47.4 4.3 15.4 4.1 26 15.5 10.8 11.3 10.8 26.9 0 16.8-12.3 29.1-12.1 12.3-37.6 17.4l41.8 52.1q14.4 17.9 24.7 23.8 10.3 5.9 26.8 7.5zm-143.8-163.9v75.5q2.9 0 5 0.2 2.1 0 3.4 0 29 0 43.6-11.3 14.8-11.2 14.8-28.6 0-17-12-27.6-11.8-10.7-31.3-10.7-8.7 0-23.5 2.5z"/>
		<path id="WINDOWS" class="s3" aria-label="WINDOWS"  d="m1075.2 370.2h62.4v5.1q-8.2 0-13.2 2.6-5.1 2.6-9.8 9.7-3 4.8-9.7 22.9l-58.2 149.7h-6.2l-47.6-118.8-47.4 118.8h-5.5l-62.2-154.2q-6.9-17.3-8.7-20.5-3.1-5.2-8.5-7.6-5.3-2.6-14.4-2.6v-5.1h77.4v5.1h-3.7q-8.1 0-12.5 3.2-4.3 3.3-4.3 8 0 4.8 6.8 22.1l41.2 104.2 34.7-88.6-6.2-15.6-4.9-12.5q-3.3-6.9-7.3-12.1-2-2.6-4.9-4.4-3.9-2.4-7.7-3.5-3-0.8-9.3-0.8v-5.1h81.4v5.1h-5.5q-8.7 0-12.7 3.2-4 3.3-4 9 0 6.9 7 24.3l40 101 39.8-102.3q6.8-17 6.8-23.6 0-3.1-2.3-5.9-2.2-2.7-5.6-3.8-5.8-1.9-15.2-1.9zm154.8 180.7h7.5v5.1h-89.6v-5.1h7.4q13 0 18.9-6.7 3.7-4.4 3.7-21.1v-120.1q0-14.1-2-18.6-1.6-3.4-6.4-5.9-6.8-3.3-14.2-3.3h-7.4v-5h89.6v5h-7.5q-12.8 0-18.7 6.7-3.8 4.4-3.8 21.1v120.1q0 14.1 2 18.6 1.5 3.4 6.4 5.9 6.7 3.3 14.1 3.3zm11.1-175.7v-5h56.7l127.8 139.3v-107.1q0-17.2-4.3-21.4-5.7-5.8-18.1-5.8h-7.2v-5h72.8v5h-7.4q-13.3 0-18.8 7.2-3.4 4.3-3.4 20v156.6h-5.6l-137.8-149.7v114.5q0 17.1 4.2 21.3 5.8 5.8 18 5.8h7.4v5.1h-72.8v-5.1h7.3q13.4 0 18.9-7.1 3.4-4.4 3.4-20v-129.3q-9.1-9.4-13.8-12.4-4.7-3-13.8-5.6-4.4-1.3-13.5-1.3zm331 180.8h-93.5v-5.1h7.9q13.3 0 18.8-7.5 3.4-4.6 3.4-20.3v-120.1q0-17.4-4.3-21.7-6-6.1-17.9-6.1h-7.9v-5h85.1q46.9 0 71.3 9.4 24.5 9.5 39.3 31.5 14.9 22.1 14.9 51 0 38.8-26.5 64.8-29.7 29.1-90.6 29.1zm-33.8-171.5v158q19.6 3.9 32.8 3.9 35.8 0 59.4-22.4 23.6-22.3 23.6-60.5 0-38.5-23.6-60.7-23.6-22.2-60.6-22.2-13.9 0-31.6 3.9zm278.4-18.6q40.7 0 70.5 27.6 29.9 27.4 29.9 68.5 0 42.3-30.1 70.3-30 27.9-72.7 27.9-43.2 0-72.7-27.3-29.2-27.2-29.2-70.5 0-44.3 33.9-72.2 29.4-24.3 70.4-24.3zm-2.9 10q-28.1 0-45 18.5-21.1 23-21.1 67.4 0 45.5 21.8 70.1 16.9 18.6 44.4 18.6 29.5 0 48.6-20.4 19.3-20.4 19.3-64.4 0-47.7-21.1-71.2-17-18.6-46.9-18.6zm348.6-5.7h62.4v5q-8.2 0-13.3 2.6-5 2.6-9.7 9.8-3.1 4.8-9.7 22.8l-58.3 149.8h-6.1l-47.7-118.8-47.3 118.8h-5.5l-62.2-154.3q-6.9-17.2-8.8-20.4-3-5.2-8.4-7.7-5.3-2.6-14.4-2.6v-5h77.4v5h-3.7q-8.2 0-12.5 3.3-4.3 3.3-4.3 8 0 4.8 6.8 22l41.2 104.3 34.6-88.7-6.1-15.6-5-12.4q-3.2-6.9-7.2-12.1-2-2.6-4.9-4.4-3.9-2.5-7.7-3.5-3-0.9-9.3-0.9v-5h81.4v5h-5.5q-8.7 0-12.7 3.3-4 3.3-4 8.9 0 7 6.9 24.4l40.1 101 39.8-102.4q6.8-16.9 6.8-23.5 0-3.2-2.3-5.9-2.2-2.8-5.6-3.9-5.8-1.9-15.2-1.9zm203.9-4.2h5.7v64.2h-5.7q-2.7-18.5-10-29.4-7.1-11-20.3-17.4-13.3-6.5-27.5-6.5-16 0-26.5 8.8-10.5 8.6-10.5 19.7 0 8.5 6.6 15.5 9.6 10.3 45.5 27.4 29.3 14 40 21.5 10.7 7.4 16.4 17.6 5.9 10.1 5.9 21.2 0 21.1-18.5 36.5-18.3 15.2-47.3 15.2-9.1 0-17.1-1.2-4.8-0.7-19.9-5-15-4.4-19-4.4-3.8 0-6.2 2.1-2.1 2-3.2 8.5h-5.7v-63.7h5.7q4 20 10.8 30 6.8 9.8 20.7 16.4 14 6.6 30.6 6.6 19.3 0 30.4-9 11.3-9.1 11.3-21.4 0-6.9-4.4-13.9-4.1-6.9-13.1-13-6-4.1-32.8-17.4-26.8-13.4-38.2-21.4-11.3-7.9-17.1-17.5-5.9-9.6-5.9-21.1 0-20 17.3-34.4 17.2-14.5 43.9-14.5 16.7 0 35.3 7.2 8.6 3.5 12.2 3.5 4 0 6.5-2.1 2.6-2.2 4.1-8.6z"/>
	</g>
</svg>