<svg version="1.2" xmlns="http://www.w3.org/2000/svg" viewBox="0 0 1195 138" width="1195" height="138">
	<title>New Project</title>
	<style>
		.s0 { fill: #000000 } 
	</style>
	<path id=" Pocket PC" class="s0" aria-label="
Pocket PC"  d="m63.7 88.7h-22.7v47.3h-40.5v-130.3h55.6q20.8 0 31.6 4.8 10.9 4.8 17.2 14.6 6.4 9.8 6.4 22 0 18.6-13 30.1-13 11.5-34.6 11.5zm-23.2-53.2v25.2h13.3q17.7 0 17.7-13 0-12.2-16.3-12.2zm125.1 102.5q-24.2 0-38.4-15-14.2-15.1-14.2-35.3 0-21.8 14.8-36.3 14.9-14.5 38.7-14.5 23.9 0 38.4 14.3 14.6 14.4 14.6 35.9 0 21.8-14.8 36.4-14.7 14.5-39.1 14.5zm0.6-23.1q8.8 0 10.8-9.2 2-9.2 2-19.2 0-13.7-2.8-19.7-2.8-6-9.9-6-6.6 0-9.7 6.2-3 6.2-3 20.4 0 16.7 3.1 22.2 3.2 5.3 9.5 5.3zm122.5-18l32.5 2.7q-2.3 17-14.3 27.7-12 10.7-31.8 10.7-22.3 0-36.2-13.9-13.8-14.1-13.8-35.9 0-22.4 13.7-36.8 13.9-14.5 35.9-14.5 19.6 0 31.9 11 12.3 10.9 14.1 27.6l-33.3 2.8q-2.1-15.4-11.7-15.4-6.1 0-8.9 5.6-2.8 5.6-2.8 19.4 0 11.9 2.8 17.7 2.8 5.7 9.8 5.7 10.2 0 12.1-14.4zm108.7-58h33.6l-29.3 33.4 32.7 63.7h-39.3l-18.3-38.8-10.4 12.1v26.7h-35.7v-130.3h35.7v52.6q0 2.2-0.3 17.6 3.5-4.9 7-8.9zm102.7 62.2l35.5 2.4q-3.1 14.3-16.1 24.4-12.9 10.1-34.9 10.1-24.6 0-39.2-14.2-14.6-14.2-14.6-35.2 0-21.7 14.4-36.7 14.4-15 38.5-15 23.3 0 37.6 14.1 14.4 14.1 14.4 38.5 0 2-0.1 5.5h-65q0.2 9.2 3.3 13.7 3 4.4 11.6 4.4 12.4 0 14.6-12zm-29.6-25.2h27.1q-0.1-9.8-4-13.1-3.8-3.5-9.5-3.5-13.6 0-13.6 16.6zm116.6-37h19.3v24.7h-19.3v35.8q0 7.4 2.7 8.8 2.8 1.3 5.8 1.3 4.5 0 10.8-1.6v27.1q-11.2 2.2-22.1 2.2-17.6 0-25.9-7.5-8.2-7.6-8.2-24.1l0.1-11.3v-30.7h-14.5v-24.7h14.5l0.6-31.6 36.2-0.6zm79.9 97.1v-134.1h44.3q10.5 0 18.6 1.7 8.1 1.6 15 6.9 6.2 4.6 10.3 12 4.1 7.4 4.1 18.5 0 18.8-12.5 30.1-5.3 4.7-11.5 7.1-6.2 2.4-11.4 3-5.3 0.5-12 0.5h-28.1v54.3zm16.8-119.6v50.8h26.2q7.1 0 12.9-1.2 5.8-1.2 10.6-5.5 3.5-3.3 5.6-8.3 2.1-5.1 2.1-11.6 0-11.7-7.7-18.2-7.5-6-22-6zm188.9 26.3l-15.8 3q-0.9-4.3-2.6-8.9-1.7-4.6-4.5-8.5-9.1-13.9-25.7-13.9-20 0-30 17.8-7.4 12.7-7.4 35.4 0 9.5 1.4 18.4 1.4 8.8 4.8 16.2 10.2 21.3 31.2 21.3 7 0 12.4-2.5 5.3-2.5 9.8-7.5 8.6-9.6 11.2-22.7l15.2 3.4q-3.5 17.7-15 29.9-8 8.3-16 11-7.9 2.8-16.9 2.8-12 0-23.1-4.6-11.1-4.6-20.3-18.4-6.1-9.4-9.5-22-3.2-12.7-3.2-26.1 0-19.1 5-31 4.9-12 10.3-18.1 9.2-10.8 19.8-14.2 10.6-3.5 20.6-3.5 20.2 0 33.1 11.9 5.9 5.4 10 13.6 4.1 8 5.2 17.2z"/>
	<path id="2000" class="s0" aria-label="2000"  d="m919.6 103.4h42.6v10.3h-57.3v-10.3q7-7.2 18.9-19.3 12.1-12.1 15.1-15.6 5.9-6.6 8.2-11.1 2.4-4.6 2.4-9.1 0-7.1-5.1-11.7-5-4.5-13.1-4.5-5.8 0-12.2 2-6.3 2-13.6 6v-12.3q7.4-3 13.8-4.5 6.4-1.5 11.7-1.5 14 0 22.4 7 8.3 7 8.3 18.8 0 5.5-2.1 10.5-2 5-7.5 11.8-1.6 1.7-9.7 10.1-8.1 8.4-22.8 23.4zm91.8-71.9q-9.5 0-14.3 9.3-4.7 9.2-4.7 27.9 0 18.5 4.7 27.8 4.8 9.3 14.3 9.3 9.4 0 14.2-9.3 4.7-9.3 4.7-27.8 0-18.7-4.7-27.9-4.8-9.3-14.2-9.3zm0-9.7q15.1 0 23.1 12 8 12 8 34.9 0 22.7-8 34.8-8 11.9-23.1 11.9-15.2 0-23.3-11.9-7.9-12.1-7.9-34.8 0-22.9 7.9-34.9 8.1-12 23.3-12zm76.1 9.7q-9.4 0-14.2 9.3-4.7 9.2-4.7 27.9 0 18.5 4.7 27.8 4.8 9.3 14.2 9.3 9.5 0 14.2-9.3 4.8-9.3 4.8-27.8 0-18.7-4.8-27.9-4.7-9.3-14.2-9.3zm0-9.7q15.2 0 23.2 12 8 12 8 34.9 0 22.7-8 34.8-8 11.9-23.2 11.9-15.2 0-23.2-11.9-8-12.1-8-34.8 0-22.9 8-34.9 8-12 23.2-12zm76.2 9.7q-9.5 0-14.2 9.3-4.8 9.2-4.8 27.9 0 18.5 4.8 27.8 4.7 9.3 14.2 9.3 9.5 0 14.2-9.3 4.7-9.3 4.7-27.8 0-18.7-4.7-27.9-4.7-9.3-14.2-9.3zm0-9.7q15.1 0 23.1 12 8.1 12 8.1 34.9 0 22.7-8.1 34.8-8 11.9-23.1 11.9-15.2 0-23.2-11.9-8-12.1-8-34.8 0-22.9 8-34.9 8-12 23.2-12z"/>
</svg>