<svg version="1.2" xmlns="http://www.w3.org/2000/svg" viewBox="0 0 1055 108" width="1055" height="108">
	<title>Windows_Server_2012_R2_logo_and_wordmark-svg</title>
	<style>
		.s0 { fill: #ffffff } 
	</style>
	<g id="g4">
		<g id="svg_1">
			<path id="svg_2" class="s0" d="m217.6 22.4l-17.6 62.1h-8.5l-12.8-45.4q-0.8-2.9-1-6.3h-0.2q-0.2 3.2-1.1 6.2l-12.9 45.5h-8.4l-18.2-62.1h8l13.2 47.7q0.8 2.9 1.1 6.2h0.2q0.2-2.3 1.3-6.2l13.8-47.7h6.9l13.2 48q0.7 2.5 1 5.8h0.2q0.2-2.2 1.2-6l12.7-47.8h7.9z"/>
			<path id="svg_3" class="s0" d="m227.3 28.9q-1.9 0-3.2-1.3-1.3-1.3-1.3-3.3 0-2 1.3-3.3 1.3-1.3 3.2-1.3 2 0 3.4 1.3 1.3 1.3 1.3 3.3 0 1.9-1.3 3.3-1.4 1.3-3.4 1.3zm3.5 55.6h-7.1v-44.3h7.1z"/>
			<path id="svg_4" class="s0" d="m278.6 84.5h-7.1v-25.3q0-14.1-10.3-14.1-5.4 0-8.9 4-3.5 4-3.5 10.1v25.3h-7.1v-44.3h7.1v7.3h0.2q5-8.4 14.6-8.4 7.3 0 11.1 4.7 3.9 4.7 3.9 13.6v27.1z"/>
			<path id="svg_5" fill-rule="evenodd" class="s0" d="m329.1 84.5h-7.1v-7.5h-0.2q-4.9 8.6-15.2 8.6-8.4 0-13.4-6-5-5.9-5-16.2 0-11 5.6-17.6 5.5-6.7 14.7-6.7 9.2 0 13.3 7.2h0.2v-27.5h7.1zm-7.1-20v-6.6q0-5.3-3.5-9.1-3.6-3.7-9.1-3.7-6.5 0-10.2 4.8-3.7 4.8-3.7 13.2 0 7.6 3.6 12.1 3.5 4.4 9.6 4.4 5.9 0 9.6-4.3 3.7-4.3 3.7-10.8z"/>
			<path id="svg_6" fill-rule="evenodd" class="s0" d="m360.2 85.6q-9.9 0-15.7-6.2-5.9-6.3-5.9-16.5 0-11.2 6.1-17.5 6.1-6.3 16.5-6.3 9.9 0 15.5 6.1 5.6 6.1 5.6 17 0 10.6-6 17-6 6.4-16.1 6.4zm0.5-40.5q-6.9 0-10.8 4.7-4 4.6-4 12.8 0 7.9 4 12.4 4 4.6 10.8 4.6 6.9 0 10.6-4.5 3.7-4.4 3.7-12.7 0-8.3-3.7-12.8-3.7-4.5-10.6-4.5z"/>
			<path id="svg_7" class="s0" d="m446.3 40.2l-13.3 44.3h-7.4l-9.1-31.7q-0.5-1.9-0.7-4.1h-0.2q-0.1 1.5-0.9 4l-9.9 31.8h-7.1l-13.4-44.3h7.4l9.2 33.3q0.4 1.5 0.6 4h0.4q0.1-1.9 0.7-4.1l10.3-33.2h6.5l9.1 33.4q0.5 1.6 0.7 4h0.3q0.1-1.7 0.8-4l9-33.4z"/>
			<path id="svg_8" class="s0" d="m449.6 82.9v-7.6q5.8 4.3 12.8 4.3 9.3 0 9.3-6.3 0-1.7-0.8-3-0.8-1.2-2.1-2.2-1.4-0.9-3.2-1.7-1.9-0.7-4-1.5-2.9-1.2-5.2-2.4-2.2-1.2-3.7-2.7-1.5-1.5-2.3-3.4-0.7-1.9-0.7-4.5 0-3.1 1.4-5.5 1.5-2.4 3.8-4 2.4-1.6 5.5-2.5 3-0.8 6.3-0.8 5.7 0 10.3 2v7.2q-4.9-3.2-11.3-3.2-2 0-3.6 0.4-1.6 0.5-2.7 1.3-1.2 0.9-1.8 2-0.6 1.1-0.6 2.5 0 1.8 0.6 2.9 0.6 1.2 1.8 2.1 1.3 0.9 3 1.7 1.7 0.7 3.9 1.6 3 1.1 5.3 2.3 2.4 1.2 4 2.7 1.6 1.5 2.5 3.4 0.9 2 0.9 4.6 0 3.3-1.4 5.8-1.5 2.4-3.9 4-2.4 1.6-5.6 2.4-3.1 0.8-6.6 0.8-6.9 0-11.9-2.7z"/>
			<path id="svg_9" class="s0" d="m500.7 82v-8.6q1.5 1.3 3.6 2.4 2 1 4.3 1.7 2.3 0.7 4.6 1.1 2.3 0.4 4.2 0.4 6.7 0 10.1-2.5 3.3-2.5 3.3-7.1 0-2.5-1.1-4.4-1.1-1.9-3.1-3.4-1.9-1.6-4.6-3-2.7-1.4-5.7-2.9-3.3-1.7-6.1-3.4-2.8-1.7-4.9-3.7-2.1-2-3.3-4.6-1.2-2.6-1.2-6 0-4.3 1.9-7.4 1.9-3.2 4.9-5.2 3-2.1 6.9-3 3.9-1 7.9-1 9.2 0 13.4 2.2v8.2q-5.5-3.9-14.1-3.9-2.4 0-4.8 0.5-2.4 0.5-4.2 1.7-1.9 1.1-3.1 2.9-1.1 1.7-1.1 4.3 0 2.4 0.8 4.1 0.9 1.7 2.7 3.2 1.7 1.4 4.2 2.8 2.5 1.3 5.7 2.9 3.4 1.6 6.4 3.5 2.9 1.8 5.2 4 2.2 2.2 3.6 4.9 1.3 2.7 1.3 6.1 0 4.6-1.8 7.8-1.8 3.2-4.9 5.2-3 2-7 2.9-4 0.9-8.4 0.9-1.5 0-3.6-0.3-2.2-0.2-4.5-0.7-2.2-0.4-4.2-1.1-2-0.7-3.3-1.5z"/>
			<path id="svg_10" fill-rule="evenodd" class="s0" d="m581.5 64.1h-31.3q0.1 7.4 3.9 11.5 3.8 4 10.5 4 7.5 0 13.8-4.9v6.6q-5.8 4.3-15.5 4.3-9.4 0-14.7-6.1-5.4-6-5.4-17 0-10.3 5.9-16.9 5.8-6.5 14.5-6.5 8.7 0 13.5 5.7 4.8 5.6 4.8 15.6zm-7.3-6q0-6.2-3-9.6-2.9-3.4-8.1-3.4-5 0-8.5 3.6-3.5 3.6-4.4 9.4z"/>
			<path id="svg_11" class="s0" d="m614 47.4q-1.8-1.5-5.3-1.5-4.6 0-7.6 4.3-3.1 4.3-3.1 11.7v22.6h-7.1v-44.3h7.1v9.1h0.2q1.5-4.7 4.6-7.3 3.1-2.6 7-2.6 2.8 0 4.2 0.6z"/>
			<path id="svg_12" class="s0" d="m659 40.2l-17.6 44.3h-7l-16.8-44.3h7.8l11.2 32.2q1.3 3.6 1.6 6.2h0.2q0.4-3.3 1.3-6l11.8-32.4z"/>
			<path id="svg_13" fill-rule="evenodd" class="s0" d="m698.9 64.1h-31.3q0.2 7.4 4 11.5 3.8 4 10.5 4 7.5 0 13.8-4.9v6.6q-5.9 4.3-15.5 4.3-9.4 0-14.8-6.1-5.4-6-5.4-17 0-10.3 5.9-16.9 5.9-6.5 14.6-6.5 8.7 0 13.5 5.7 4.7 5.6 4.7 15.6zm-7.2-6q-0.1-6.2-3-9.6-2.9-3.4-8.1-3.4-5.1 0-8.6 3.6-3.5 3.6-4.3 9.4z"/>
			<path id="svg_14" class="s0" d="m730.4 47.4q-1.8-1.5-5.3-1.5-4.6 0-7.7 4.3-3 4.3-3 11.7v22.6h-7.1v-44.3h7.1v9.1h0.2q1.5-4.7 4.6-7.3 3.1-2.6 7-2.6 2.8 0 4.2 0.6z"/>
			<path id="svg_15" class="s0" d="m779.3 38.7q0-2.9-0.9-5-0.9-2.1-2.4-3.5-1.6-1.4-3.6-2.1-2.1-0.7-4.5-0.7-2.1 0-4.1 0.5-2 0.6-3.9 1.6-1.9 1-3.6 2.4-1.8 1.4-3.3 3.1v-7.7q3-2.9 6.7-4.4 3.7-1.5 9-1.5 3.8 0 7.1 1.1 3.2 1.1 5.6 3.2 2.4 2.1 3.8 5.2 1.3 3.2 1.3 7.2 0 3.7-0.8 6.7-0.9 2.9-2.6 5.6-1.7 2.6-4.3 5.1-2.6 2.4-6.1 4.9-4.4 3.1-7.2 5.3-2.8 2.2-4.5 4.2-1.7 1.9-2.4 3.8-0.6 1.9-0.6 4.5h30.9v6.3h-38.3v-3q0-4 0.8-7.1 0.9-3 2.9-5.7 2-2.8 5.2-5.5 3.2-2.7 7.9-6.1 3.4-2.5 5.7-4.7 2.3-2.2 3.6-4.4 1.4-2.2 2-4.5 0.6-2.3 0.6-4.8z"/>
			<path id="svg_16" fill-rule="evenodd" class="s0" d="m836.5 53.2q0 7.8-1.4 13.8-1.4 6-4.1 10.2-2.7 4.1-6.5 6.3-3.9 2.1-8.9 2.1-4.6 0-8.3-2-3.7-2.1-6.2-6-2.5-4-3.8-9.7-1.3-5.8-1.3-13.2 0-8.1 1.4-14.4 1.3-6.2 4-10.4 2.6-4.3 6.5-6.4 4-2.1 9-2.1 19.6 0 19.6 31.8zm-7.3 0.7q0-26.5-12.6-26.5-13.3 0-13.3 27 0 25.1 13 25.1 12.9 0 12.9-25.6z"/>
			<path id="svg_17" class="s0" d="m862.8 84.5h-7.1v-53.7q-0.8 0.9-2.4 1.9-1.6 1.1-3.6 2.1-1.9 1.1-4.1 2-2.2 0.9-4.3 1.4v-7.2q2.4-0.6 5-1.7 2.6-1.1 5.1-2.5 2.6-1.4 4.8-2.9 2.3-1.5 3.9-2.9h2.7z"/>
			<path id="svg_18" class="s0" d="m904.8 38.7q0-2.9-0.9-5-0.9-2.1-2.4-3.5-1.5-1.4-3.6-2.1-2.1-0.7-4.5-0.7-2.1 0-4.1 0.5-2 0.6-3.9 1.6-1.8 1-3.6 2.4-1.8 1.4-3.3 3.1v-7.7q3-2.9 6.7-4.4 3.7-1.5 9.1-1.5 3.8 0 7 1.1 3.3 1.1 5.7 3.2 2.3 2.1 3.7 5.2 1.4 3.2 1.4 7.2 0 3.7-0.9 6.7-0.8 2.9-2.5 5.6-1.7 2.6-4.3 5.1-2.6 2.4-6.2 4.9-4.3 3.1-7.2 5.3-2.8 2.2-4.5 4.2-1.6 1.9-2.3 3.8-0.7 1.9-0.7 4.5h30.9v6.3h-38.3v-3q0-4 0.9-7.1 0.8-3 2.8-5.7 2-2.8 5.3-5.5 3.2-2.7 7.9-6.1 3.3-2.5 5.6-4.7 2.3-2.2 3.7-4.4 1.4-2.2 1.9-4.5 0.6-2.3 0.6-4.8z"/>
			<g id="svg_19">
				<path id="svg_20" fill-rule="evenodd" class="s0" d="m739.6 49.6q-2.3 0-4-1.6-1.6-1.7-1.6-4.1 0-2.3 1.6-4 1.7-1.6 4-1.6 2.4 0 4.1 1.6 1.6 1.7 1.6 4 0 2.4-1.6 4.1-1.7 1.6-4.1 1.6zm0.1-10.5q-2 0-3.4 1.4-1.5 1.4-1.4 3.4-0.1 2 1.4 3.4 1.4 1.4 3.4 1.4 1.9 0 3.3-1.4 1.4-1.4 1.4-3.4 0-1.9-1.4-3.4-1.4-1.4-3.3-1.4zm2.7 8.4h-1.3l-0.8-1.7q-0.6-1.4-1.3-1.4h-0.5v3.1h-1.1v-7.2h2.1q1.2 0 1.9 0.5 0.7 0.5 0.7 1.4 0 0.8-0.5 1.3-0.5 0.5-1.3 0.7 0.6 0.2 1.2 1.4zm-3.9-6.3v2.3h0.9q1.5 0 1.5-1.2 0-0.6-0.4-0.9-0.4-0.2-1.3-0.2z"/>
			</g>
			<g id="Winlogo">
				<g id="TM">
					<path id="svg_21" class="s0" d="m114 101.3h-1.8v5.6h-0.7v-5.6h-1.8v-0.6h4.3z"/>
					<path id="svg_22" class="s0" d="m120.9 106.9h-0.7v-4.2q0-0.5 0-1.2-0.1 0.4-0.2 0.6l-2.1 4.8h-0.4l-2.1-4.7q-0.1-0.2-0.2-0.7 0 0.4 0 1.2v4.2h-0.7v-6.2h1l1.9 4.3q0.2 0.5 0.3 0.8 0.2-0.5 0.3-0.8l2-4.3h0.9z"/>
				</g>
				<path id="svg_23" class="s0" d="m105.8 51.3v-51.3l-58.9 8.6v42.7z"/>
				<path id="svg_24" class="s0" d="m42.8 9.2l-42.8 6.2v35.9h42.8z"/>
				<path id="svg_25" class="s0" d="m0 55.4v36.3l42.8 6.3v-42.6z"/>
				<path id="svg_26" class="s0" d="m46.9 98.6l58.9 8.7v-51.9h-58.9z"/>
			</g>
		</g>
		<g id="text50978">
			<path id="path828" fill-rule="evenodd" class="s0" d="m1010.7 84.5h-8.7l-10.3-17.4q-1.5-2.4-2.8-4.1-1.4-1.7-2.8-2.8-1.4-1.1-3-1.6-1.6-0.5-3.7-0.5h-5.9v26.4h-7.3v-62.1h18.5q4.1 0 7.5 1 3.5 1 6 3.1 2.5 2.1 4 5.2 1.4 3.1 1.4 7.2 0 3.3-1 6-0.9 2.7-2.8 4.8-1.7 2.2-4.3 3.7-2.5 1.4-5.7 2.3v0.1q1.6 0.7 2.7 1.6 1.2 0.9 2.2 2.1 1.1 1.2 2.1 2.8 1 1.5 2.3 3.5zm-37.3-55.5v22.5h9.9q2.7 0 5-0.8 2.3-0.8 4-2.3 1.7-1.6 2.7-3.8 0.9-2.2 0.9-5 0-5-3.2-7.8-3.2-2.8-9.3-2.8z"/>
			<path id="path830" class="s0" d="m1044.5 38.7q0-2.9-0.9-5-0.8-2.1-2.4-3.5-1.5-1.4-3.6-2.1-2.1-0.7-4.5-0.7-2.1 0-4.1 0.5-2 0.6-3.9 1.6-1.8 1-3.6 2.4-1.7 1.4-3.3 3.1v-7.7q3-2.9 6.7-4.4 3.7-1.5 9.1-1.5 3.8 0 7 1.1 3.3 1.1 5.7 3.2 2.3 2.1 3.7 5.2 1.4 3.2 1.4 7.2 0 3.7-0.9 6.7-0.8 2.9-2.5 5.6-1.7 2.6-4.3 5-2.6 2.5-6.1 5-4.4 3.1-7.3 5.3-2.8 2.2-4.5 4.2-1.6 1.9-2.3 3.8-0.7 1.9-0.7 4.4h31v6.4h-38.4v-3.1q0-3.9 0.9-7 0.9-3 2.8-5.7 2-2.8 5.2-5.5 3.3-2.7 8-6.1 3.4-2.5 5.6-4.7 2.3-2.2 3.7-4.4 1.4-2.2 1.9-4.5 0.6-2.3 0.6-4.8z"/>
		</g>
		<path id="/" class="s0" aria-label="/"  d="m950.9 17.9h6.3l-27.9 67.7h-6.2z"/>
	</g>
</svg>