<svg version="1.2" xmlns="http://www.w3.org/2000/svg" viewBox="0 0 172 33" width="172" height="33">
	<title>Windows_8_logo_and_wordmark-svg</title>
	<style>
		.s0 { fill: #ffffff } 
	</style>
	<g id="Layer">
		<g id="Layer">
			<path id="Layer" fill-rule="evenodd" class="s0" d="m0 4.6l13.3-1.8v12.9h-13.3zm13.3 12.6v12.8l-13.3-1.8v-11.1zm1.6-14.6l17.7-2.6v15.5l-17.7 0.2zm17.7 14.7v15.4l-17.7-2.5v-13z"/>
			<path id="Layer" fill-rule="evenodd" class="s0" d="m72.4 6q0.5 0.5 0.5 1.3 0 0.7-0.5 1.2-0.5 0.5-1.3 0.5-0.7 0-1.2-0.5-0.5-0.5-0.5-1.2 0-0.8 0.5-1.3 0.5-0.4 1.2-0.4 0.8 0 1.3 0.4zm30.8-0.4v20.8h-2.8v-1.7q-1.6 2-4.5 2-2.7 0-4.4-1.9-1.6-1.9-1.6-5.2 0-3.5 1.8-5.6 1.8-2.2 4.8-2.2 2.6 0 3.9 1.6v-7.8zm64 1.1q1.1 0.4 1.9 1.1 0.7 0.7 1.2 1.7 0.4 0.9 0.4 2 0 1.4-0.8 2.6-0.8 1.1-1.9 1.6 0.7 0.1 1.4 0.7 0.7 0.6 1.1 1.3 0.5 0.7 0.8 1.5 0.2 0.8 0.2 1.6 0 1.3-0.5 2.4-0.5 1.1-1.3 1.9-0.9 0.8-2.1 1.2-1.2 0.4-2.6 0.4-1.5 0-2.6-0.4-1.2-0.4-2.1-1.2-0.9-0.8-1.4-1.9-0.5-1.1-0.5-2.4 0-0.8 0.3-1.6 0.2-0.8 0.7-1.5 0.5-0.7 1.2-1.3 0.7-0.6 1.4-0.7-1.2-0.5-2-1.6-0.7-1.2-0.7-2.6 0-1.1 0.4-2 0.4-1 1.2-1.7 0.8-0.7 1.8-1.1 1.1-0.4 2.3-0.4 1.2 0 2.2 0.4zm-110.1-0.1l4.3 16.3 4.1-16.3h2.9l-5.4 19.6-3.3-0.1-4.2-15.3-4.2 15.3-3.3 0.1-5.6-19.6h3l4.3 16.1 4.5-16.1zm106.7 2.4q-0.5 0.2-0.9 0.6-0.4 0.4-0.6 0.9-0.2 0.6-0.2 1.2 0 0.6 0.2 1.2 0.2 0.5 0.6 0.9 0.4 0.4 1 0.6 0.5 0.2 1.1 0.2 0.6 0 1.1-0.2 0.5-0.2 0.9-0.6 0.4-0.4 0.6-1 0.3-0.5 0.3-1.1 0-0.7-0.3-1.2-0.2-0.5-0.6-0.9-0.4-0.4-0.9-0.7-0.5-0.2-1.1-0.2-0.7 0-1.2 0.3zm-46.2 4.8q1.8 1.9 1.8 5.3 0 3.4-1.9 5.5-2 2-5.2 2-3.2 0-5.1-2-1.9-2-1.9-5.2 0-3.6 2-5.6 2-2 5.3-2 3.2 0 5 2zm31.7-1.3v2.7q-1.8-1-3.4-1-0.5 0-0.9 0.1-0.4 0.2-0.7 0.4-0.3 0.2-0.4 0.5-0.2 0.3-0.2 0.7 0 0.5 0.2 0.8 0.1 0.3 0.4 0.5 0.3 0.3 0.8 0.5 0.4 0.2 1 0.5 0.9 0.3 1.6 0.7 0.6 0.4 1.1 0.9 0.5 0.5 0.8 1.1 0.2 0.7 0.2 1.6 0 1.1-0.4 1.9-0.5 0.8-1.2 1.3-0.7 0.5-1.6 0.8-0.9 0.2-1.9 0.2-1.9 0-3.5-0.9v-2.8q1.9 1.3 3.8 1.3 2.3 0 2.3-1.6 0-0.5-0.2-0.8-0.2-0.3-0.5-0.6-0.4-0.3-0.9-0.5-0.5-0.3-1-0.5-0.9-0.4-1.5-0.7-0.7-0.4-1.1-0.9-0.4-0.5-0.7-1.2-0.2-0.6-0.2-1.4 0-1.1 0.4-1.9 0.5-0.8 1.2-1.3 0.6-0.5 1.5-0.8 0.9-0.3 1.9-0.3 1.6 0 3.1 0.7zm-66.6-0.6c1.6 0 2.8 0.4 3.6 1.4 0.9 1.1 1.2 2.7 1.2 4.6v8.3h-2.7v-7.8c0-2.7-0.9-4.3-3-4.3-1 0-1.9 0.4-2.6 1.2-0.8 1-0.9 1.5-0.9 3.1l-0.1 7.8h-2.7v-14h2.7v2.2c1-1.5 2.3-2.5 4.5-2.5zm40.1 0.3l3 11.3 3.3-11.3h2.5l3.2 11.8-0.1-0.4 2.7-11.4h2.8l-4.1 14h-2.9l-2.9-10.8-3.3 10.8h-2.7l-4.4-14zm-50.5 14h-2.6l-0.1-14h2.7zm37-10.7q-1.1 1.4-1.1 3.8 0 2.3 1.1 3.6 1.2 1.4 3.2 1.4 1.9 0 3-1.3 1.1-1.3 1.1-3.7 0-2.5-1.1-3.8-1.1-1.3-3-1.3-2 0-3.2 1.3zm-15.4 0.1q-1.1 1.4-1.1 3.9 0 2.3 1 3.6 1 1.3 2.7 1.3 1.7 0 2.8-1.3 1.1-1.2 1.1-3.1v-2.1q0-1.5-1-2.6-1.1-1.1-2.6-1.1-1.9 0-2.9 1.4zm69.7 1.7q-0.7 0.2-1.1 0.7-0.5 0.5-0.8 1.1-0.3 0.7-0.3 1.5 0 0.9 0.3 1.6 0.2 0.6 0.7 1.1 0.5 0.5 1.1 0.7 0.7 0.3 1.5 0.3 0.8 0 1.4-0.3 0.7-0.3 1.1-0.7 0.5-0.5 0.8-1.2 0.3-0.6 0.3-1.5 0-0.7-0.3-1.4-0.3-0.6-0.7-1.1-0.5-0.5-1.2-0.8-0.6-0.3-1.4-0.3-0.8 0-1.4 0.3z"/>
			<path id="Layer" class="s0" d="m37.4 32.7h-0.2v-1.2h-0.1l-0.5 1.2h-0.2l-0.5-1.2v1.2h-0.3v-1.7h0.4l0.5 1.3 0.6-1.3h0.3zm-2-1.4h-0.5v1.4h-0.3v-1.4h-0.5v-0.2h1.3z"/>
			<path id="Layer" fill-rule="evenodd" class="s0" d="m151.9 14.8q-0.6 0-1-0.4-0.4-0.4-0.4-1 0-0.6 0.4-1 0.4-0.4 1-0.4 0.6 0 1 0.4 0.4 0.4 0.4 1 0 0.6-0.4 1-0.4 0.4-1 0.4zm0-2.6q-0.5 0-0.8 0.4-0.4 0.3-0.4 0.8 0 0.5 0.4 0.9 0.3 0.3 0.8 0.3 0.5 0 0.9-0.3 0.3-0.4 0.3-0.9 0-0.5-0.3-0.8-0.4-0.4-0.9-0.4zm0.7 2.1h-0.3l-0.2-0.4q-0.2-0.3-0.3-0.3h-0.2v0.7h-0.2v-1.8h0.5q0.3 0 0.5 0.1 0.1 0.2 0.1 0.4 0 0.2-0.1 0.3-0.1 0.2-0.3 0.2 0.1 0 0.3 0.3zm-1-1.5v0.5h0.2q0.4 0 0.4-0.2 0-0.2-0.1-0.3-0.1 0-0.3 0z"/>
		</g>
	</g>
</svg>