<svg version="1.2" xmlns="http://www.w3.org/2000/svg" viewBox="0 0 1690 448" width="1690" height="448">
	<title>Windows_Embedded_POSReady_2009_stacked-svg</title>
	<defs>
		<radialGradient id="g1" cx="0" cy="0" r="1" gradientUnits="userSpaceOnUse" gradientTransform="matrix(224.729,0,0,224.729,256.6,255.867)">
			<stop offset=".25" stop-color="#ffffff"/>
			<stop offset="1" stop-color="#000000"/>
		</radialGradient>
		<radialGradient id="g2" cx="0" cy="0" r="1" gradientUnits="userSpaceOnUse" gradientTransform="matrix(224.713,0,0,224.713,256.614,255.874)">
			<stop offset=".25" stop-color="#ffffff"/>
			<stop offset="1" stop-color="#000000"/>
		</radialGradient>
		<radialGradient id="g3" cx="0" cy="0" r="1" gradientUnits="userSpaceOnUse" gradientTransform="matrix(224.726,0,0,224.726,256.607,255.877)">
			<stop offset=".25" stop-color="#ffffff"/>
			<stop offset="1" stop-color="#000000"/>
		</radialGradient>
		<radialGradient id="g4" cx="0" cy="0" r="1" gradientUnits="userSpaceOnUse" gradientTransform="matrix(224.743,0,0,224.743,256.6,255.877)">
			<stop offset=".25" stop-color="#ffffff"/>
			<stop offset="1" stop-color="#000000"/>
		</radialGradient>
		<radialGradient id="g5" cx="0" cy="0" r="1" gradientUnits="userSpaceOnUse" gradientTransform="matrix(247.293,0,0,247.293,239.055,219.073)">
			<stop offset=".001" stop-color="#d1e7ee"/>
			<stop offset=".098" stop-color="#cde4ec"/>
			<stop offset=".203" stop-color="#c0dce8"/>
			<stop offset=".299" stop-color="#add0e1"/>
			<stop offset=".65" stop-color="#3982b1"/>
			<stop offset=".72" stop-color="#3474aa"/>
			<stop offset=".899" stop-color="#285699"/>
			<stop offset="1" stop-color="#244b93"/>
		</radialGradient>
		<radialGradient id="g6" cx="0" cy="0" r="1" gradientUnits="userSpaceOnUse" gradientTransform="matrix(248.799,0,0,248.799,238.916,217.363)">
			<stop offset=".004" stop-color="#d8eeed"/>
			<stop offset=".173" stop-color="#98d8d7"/>
			<stop offset=".224" stop-color="#8ed3d3"/>
			<stop offset=".309" stop-color="#74c6ca"/>
			<stop offset=".417" stop-color="#49b1ba"/>
			<stop offset=".448" stop-color="#3caab5"/>
			<stop offset=".56" stop-color="#2e81a4"/>
			<stop offset=".684" stop-color="#215b94"/>
			<stop offset=".783" stop-color="#19448b"/>
			<stop offset=".845" stop-color="#163b87"/>
			<stop offset="1" stop-color="#0b317d"/>
		</radialGradient>
		<radialGradient id="g7" cx="0" cy="0" r="1" gradientUnits="userSpaceOnUse" gradientTransform="matrix(248.184,0,0,248.184,238.894,218.612)">
			<stop offset=".004" stop-color="#d8eeed"/>
			<stop offset=".173" stop-color="#98d8d7"/>
			<stop offset=".224" stop-color="#8ed3d3"/>
			<stop offset=".309" stop-color="#74c6ca"/>
			<stop offset=".417" stop-color="#49b1ba"/>
			<stop offset=".448" stop-color="#3caab5"/>
			<stop offset=".56" stop-color="#2e81a4"/>
			<stop offset=".684" stop-color="#215b94"/>
			<stop offset=".783" stop-color="#19448b"/>
			<stop offset=".845" stop-color="#163b87"/>
			<stop offset="1" stop-color="#152469"/>
		</radialGradient>
		<radialGradient id="g8" cx="0" cy="0" r="1" gradientUnits="userSpaceOnUse" gradientTransform="matrix(248.295,0,0,248.295,239.077,218.408)">
			<stop offset=".004" stop-color="#d8eeed"/>
			<stop offset=".173" stop-color="#98d8d7"/>
			<stop offset=".224" stop-color="#8ed3d3"/>
			<stop offset=".309" stop-color="#74c6ca"/>
			<stop offset=".417" stop-color="#49b1ba"/>
			<stop offset=".448" stop-color="#3caab5"/>
			<stop offset=".56" stop-color="#2e81a4"/>
			<stop offset=".684" stop-color="#215b94"/>
			<stop offset=".783" stop-color="#19448b"/>
			<stop offset=".845" stop-color="#163b87"/>
			<stop offset="1" stop-color="#0b317d"/>
		</radialGradient>
		<linearGradient id="g9" x2="1" gradientUnits="userSpaceOnUse" gradientTransform="matrix(-38.693,136.104,-1.978,-0.562,225.365,226.831)">
			<stop offset="0" stop-color="#98d8d7"/>
			<stop offset="1" stop-color="#152469"/>
		</linearGradient>
		<radialGradient id="g10" cx="0" cy="0" r="1" gradientUnits="userSpaceOnUse" gradientTransform="matrix(249.175,0,0,249.175,239.136,218.317)">
			<stop offset=".004" stop-color="#d8eeed"/>
			<stop offset=".173" stop-color="#98d8d7"/>
			<stop offset=".224" stop-color="#8ed3d3"/>
			<stop offset=".309" stop-color="#74c6ca"/>
			<stop offset=".417" stop-color="#49b1ba"/>
			<stop offset=".448" stop-color="#3caab5"/>
			<stop offset=".56" stop-color="#2e81a4"/>
			<stop offset=".684" stop-color="#215b94"/>
			<stop offset=".783" stop-color="#19448b"/>
			<stop offset=".845" stop-color="#163b87"/>
			<stop offset="1" stop-color="#152469"/>
		</radialGradient>
		<linearGradient id="g11" x2="1" gradientUnits="userSpaceOnUse" gradientTransform="matrix(51.351,0,0,165.01,0,295.279)">
			<stop offset="0" stop-color="#def3f1"/>
			<stop offset="1" stop-color="#5085bc"/>
		</linearGradient>
		<linearGradient id="g12" x2="1" gradientUnits="userSpaceOnUse" gradientTransform="matrix(52.265,0,0,165.826,175.438,304.753)">
			<stop offset="0" stop-color="#def3f1"/>
			<stop offset="1" stop-color="#5085bc"/>
		</linearGradient>
		<linearGradient id="g13" x2="1" gradientUnits="userSpaceOnUse" gradientTransform="matrix(180.683,0,0,35.901,46.311,208.272)">
			<stop offset="0" stop-color="#094992"/>
			<stop offset=".668" stop-color="#8bcde2"/>
			<stop offset="1" stop-color="#e6f6f9"/>
		</linearGradient>
		<linearGradient id="g14" x2="1" gradientUnits="userSpaceOnUse" gradientTransform="matrix(NaN,NaN,NaN,NaN,NaN,NaN)">
			<stop offset="0" stop-color="#7e9ec4"/>
			<stop offset="1" stop-color="#151d89"/>
		</linearGradient>
		<linearGradient id="g15" x2="1" gradientUnits="userSpaceOnUse" gradientTransform="matrix(172.746,0,0,29.695,50.684,211.382)">
			<stop offset=".006" stop-color="#bbc7e1"/>
			<stop offset=".225" stop-color="#7090c3"/>
			<stop offset=".545" stop-color="#c8eaef"/>
			<stop offset="1" stop-color="#ffffff"/>
		</linearGradient>
		<linearGradient id="g16" x2="1" gradientUnits="userSpaceOnUse" gradientTransform="matrix(180.27,0,0,32.268,46.724,206.134)">
			<stop offset=".006" stop-color="#7090c3"/>
			<stop offset=".545" stop-color="#c1e7ed"/>
			<stop offset="1" stop-color="#ffffff"/>
		</linearGradient>
		<radialGradient id="g17" cx="0" cy="0" r="1" gradientUnits="userSpaceOnUse" gradientTransform="matrix(.61,0,0,.61,46.173,212.295)">
			<stop offset="0" stop-color="#7e9ec4"/>
			<stop offset="1" stop-color="#0a50a1"/>
		</radialGradient>
		<radialGradient id="g18" cx="0" cy="0" r="1" gradientUnits="userSpaceOnUse" gradientTransform="matrix(305.03,0,0,305.03,-72.792,366.212)">
			<stop offset=".004" stop-color="#d8eeed"/>
			<stop offset=".173" stop-color="#98d8d7"/>
			<stop offset=".224" stop-color="#8ed3d3"/>
			<stop offset=".309" stop-color="#74c6ca"/>
			<stop offset=".417" stop-color="#49b1ba"/>
			<stop offset=".448" stop-color="#3caab5"/>
			<stop offset=".499" stop-color="#369fb5"/>
			<stop offset=".631" stop-color="#2a88b4"/>
			<stop offset=".713" stop-color="#257fb4"/>
			<stop offset="1" stop-color="#4161ab"/>
		</radialGradient>
		<radialGradient id="g19" cx="0" cy="0" r="1" gradientUnits="userSpaceOnUse" gradientTransform="matrix(230.226,0,0,230.226,238.843,224.51)">
			<stop offset="0" stop-color="#fcf5b0"/>
			<stop offset=".166" stop-color="#f7eda0"/>
			<stop offset=".285" stop-color="#f3e591"/>
			<stop offset=".65" stop-color="#fcd118"/>
			<stop offset=".802" stop-color="#f7a50c"/>
			<stop offset=".929" stop-color="#f38603"/>
			<stop offset="1" stop-color="#f27b00"/>
		</radialGradient>
		<linearGradient id="g20" x2="1" gradientUnits="userSpaceOnUse" gradientTransform="matrix(-0.958,3.575,-2.641,-0.708,391.763,411.794)">
			<stop offset="0" stop-color="#de980d"/>
			<stop offset="1" stop-color="#a85d10"/>
		</linearGradient>
		<linearGradient id="g21" x2="1" gradientUnits="userSpaceOnUse" gradientTransform="matrix(45.519,0,0,157.128,391.821,335.216)">
			<stop offset="0" stop-color="#deb150"/>
			<stop offset="1" stop-color="#fff8b3"/>
		</linearGradient>
		<linearGradient id="g22" x2="1" gradientUnits="userSpaceOnUse" gradientTransform="matrix(0,2.967,-1.026,0,436.886,254.91)">
			<stop offset=".006" stop-color="#c67c0c"/>
			<stop offset="1" stop-color="#de980d"/>
		</linearGradient>
		<linearGradient id="g23" x2="1" gradientUnits="userSpaceOnUse" gradientTransform="matrix(1.851,3.08,-3.236,1.945,430.356,251.432)">
			<stop offset=".006" stop-color="#fed40f"/>
			<stop offset="1" stop-color="#a85d10"/>
		</linearGradient>
		<linearGradient id="g24" x2="1" gradientUnits="userSpaceOnUse" gradientTransform="matrix(-1.142,1.361,-4.547,-3.817,435.185,253.8)">
			<stop offset=".006" stop-color="#fed40f"/>
			<stop offset="1" stop-color="#a85d10"/>
		</linearGradient>
		<linearGradient id="g25" x2="1" gradientUnits="userSpaceOnUse" gradientTransform="matrix(179.532,0,0,32.936,250.751,253.584)">
			<stop offset="0" stop-color="#fff8fb"/>
			<stop offset="1" stop-color="#fec236"/>
		</linearGradient>
		<linearGradient id="g26" x2="1" gradientUnits="userSpaceOnUse" gradientTransform="matrix(-4.001,-1.147,44.671,-155.857,410.617,331.511)">
			<stop offset="0" stop-color="#b37e00"/>
			<stop offset="1" stop-color="#ff9e00"/>
		</linearGradient>
		<linearGradient id="g27" x2="1" gradientUnits="userSpaceOnUse" gradientTransform="matrix(-1.997,4.486,-5.571,-2.48,389.732,409.694)">
			<stop offset=".006" stop-color="#ffd100"/>
			<stop offset="1" stop-color="#a8710a"/>
		</linearGradient>
		<linearGradient id="g28" x2="1" gradientUnits="userSpaceOnUse" gradientTransform="matrix(182.972,0,0,33.247,203.289,414.082)">
			<stop offset="0" stop-color="#de980d"/>
			<stop offset=".4" stop-color="#fdda10"/>
			<stop offset="1" stop-color="#de980d"/>
		</linearGradient>
		<linearGradient id="g29" x2="1" gradientUnits="userSpaceOnUse" gradientTransform="matrix(-2.942,-3.267,4.276,-3.85,202.018,401.494)">
			<stop offset="0" stop-color="#de980d"/>
			<stop offset=".1" stop-color="#de980d"/>
			<stop offset=".7" stop-color="#fdda10"/>
			<stop offset="1" stop-color="#de980d"/>
		</linearGradient>
		<linearGradient id="g30" x2="1" gradientUnits="userSpaceOnUse" gradientTransform="matrix(2.074,3.742,-3.034,1.682,202.105,396.014)">
			<stop offset="0" stop-color="#de980d"/>
			<stop offset=".4" stop-color="#febf0f"/>
			<stop offset=".8" stop-color="#fed40f"/>
			<stop offset="1" stop-color="#de980d"/>
		</linearGradient>
		<radialGradient id="g31" cx="0" cy="0" r="1" gradientUnits="userSpaceOnUse" gradientTransform="matrix(2.26,0,0,2.26,248.428,236.626)">
			<stop offset="0" stop-color="#feeb71"/>
			<stop offset="1" stop-color="#de980d"/>
		</radialGradient>
		<linearGradient id="g32" x2="1" gradientUnits="userSpaceOnUse" gradientTransform="matrix(-4.213,-1.207,45.493,-158.756,228.127,318.353)">
			<stop offset=".006" stop-color="#ffefbb"/>
			<stop offset="1" stop-color="#ffbf00"/>
		</linearGradient>
		<linearGradient id="g33" x2="1" gradientUnits="userSpaceOnUse" gradientTransform="matrix(195.029,0,0,38.308,241.955,255.528)">
			<stop offset=".006" stop-color="#fca859"/>
			<stop offset=".213" stop-color="#fdc30f"/>
			<stop offset="1" stop-color="#b51c00"/>
		</linearGradient>
		<linearGradient id="g34" x2="1" gradientUnits="userSpaceOnUse" gradientTransform="matrix(193.806,0,0,36.757,243.533,258.068)">
			<stop offset=".006" stop-color="#fff6d8"/>
			<stop offset=".525" stop-color="#fdda10"/>
			<stop offset="1" stop-color="#f9bd0c"/>
		</linearGradient>
		<linearGradient id="g35" x2="1" gradientUnits="userSpaceOnUse" gradientTransform="matrix(-2.708,-2.341,2.207,-2.553,386.554,409.985)">
			<stop offset="0" stop-color="#eab949"/>
			<stop offset=".072" stop-color="#edc25a"/>
			<stop offset=".278" stop-color="#f3d883"/>
			<stop offset=".479" stop-color="#f8e9a4"/>
			<stop offset=".67" stop-color="#fcf5bc"/>
			<stop offset=".848" stop-color="#fefcca"/>
			<stop offset="1" stop-color="#ffffcf"/>
		</linearGradient>
		<radialGradient id="g36" cx="0" cy="0" r="1" gradientUnits="userSpaceOnUse" gradientTransform="matrix(218.547,0,0,218.547,231.823,192.827)">
			<stop offset=".004" stop-color="#efd916"/>
			<stop offset=".105" stop-color="#efd516"/>
			<stop offset=".216" stop-color="#edc715"/>
			<stop offset=".331" stop-color="#ebb213"/>
			<stop offset=".448" stop-color="#e89312"/>
			<stop offset=".567" stop-color="#e36d0f"/>
			<stop offset=".65" stop-color="#e04d0d"/>
			<stop offset=".785" stop-color="#ce2907"/>
			<stop offset=".922" stop-color="#bf0b02"/>
			<stop offset="1" stop-color="#b90000"/>
		</radialGradient>
		<linearGradient id="g37" x2="1" gradientUnits="userSpaceOnUse" gradientTransform="matrix(.902,0,0,1.104,100.326,22.095)">
			<stop offset="0" stop-color="#fd7e36"/>
			<stop offset="1" stop-color="#bd6f4f"/>
		</linearGradient>
		<linearGradient id="g38" x2="1" gradientUnits="userSpaceOnUse" gradientTransform="matrix(180.237,0,0,32.799,100.772,16.939)">
			<stop offset="0" stop-color="#fc2b21"/>
			<stop offset=".236" stop-color="#ff590a"/>
			<stop offset=".248" stop-color="#fb570b"/>
			<stop offset=".327" stop-color="#e74c0e"/>
			<stop offset=".417" stop-color="#d84511"/>
			<stop offset=".525" stop-color="#d04013"/>
			<stop offset=".697" stop-color="#cd3f13"/>
			<stop offset=".796" stop-color="#d04213"/>
			<stop offset=".869" stop-color="#d84b14"/>
			<stop offset=".933" stop-color="#e65b16"/>
			<stop offset=".993" stop-color="#f97219"/>
			<stop offset="1" stop-color="#fc7519"/>
		</linearGradient>
		<linearGradient id="g39" x2="1" gradientUnits="userSpaceOnUse" gradientTransform="matrix(50.647,0,0,164.77,54.37,106.076)">
			<stop offset="0" stop-color="#fd7e36"/>
			<stop offset="1" stop-color="#bd6f4f"/>
		</linearGradient>
		<linearGradient id="g40" x2="1" gradientUnits="userSpaceOnUse" gradientTransform="matrix(-180.189,-40.164,37.658,-168.946,291.543,41.139)">
			<stop offset="0" stop-color="#fe560d"/>
			<stop offset="1" stop-color="#8c1501"/>
		</linearGradient>
		<linearGradient id="g41" x2="1" gradientUnits="userSpaceOnUse" gradientTransform="matrix(-2.048,-55.971,266.177,-9.74,190.79,38.942)">
			<stop offset="0" stop-color="#fe560d"/>
			<stop offset="1" stop-color="#8c1501"/>
		</linearGradient>
		<linearGradient id="g42" x2="1" gradientUnits="userSpaceOnUse" gradientTransform="matrix(52.597,0,0,164.838,229.157,114.714)">
			<stop offset="0" stop-color="#fd7e36"/>
			<stop offset="1" stop-color="#fc895b"/>
		</linearGradient>
		<linearGradient id="g43" x2="1" gradientUnits="userSpaceOnUse" gradientTransform="matrix(180.047,0,0,34.93,54.494,177.948)">
			<stop offset="0" stop-color="#fd9b20"/>
			<stop offset=".25" stop-color="#fd9b20"/>
			<stop offset=".336" stop-color="#fdb830"/>
			<stop offset=".429" stop-color="#fed23e"/>
			<stop offset=".485" stop-color="#fedb43"/>
			<stop offset=".75" stop-color="#fe8411"/>
			<stop offset="1" stop-color="#fe560d"/>
		</linearGradient>
		<linearGradient id="g44" x2="1" gradientUnits="userSpaceOnUse" gradientTransform="matrix(.907,0,0,1.11,100.326,22.095)">
			<stop offset="0" stop-color="#fd7e36"/>
			<stop offset="1" stop-color="#bd6f4f"/>
		</linearGradient>
		<linearGradient id="g45" x2="1" gradientUnits="userSpaceOnUse" gradientTransform="matrix(180.244,0,0,32.791,100.764,16.942)">
			<stop offset="0" stop-color="#fc2b21"/>
			<stop offset=".236" stop-color="#ff590a"/>
			<stop offset=".248" stop-color="#fb570b"/>
			<stop offset=".327" stop-color="#e74c0e"/>
			<stop offset=".417" stop-color="#d84511"/>
			<stop offset=".525" stop-color="#d04013"/>
			<stop offset=".697" stop-color="#cd3f13"/>
			<stop offset=".796" stop-color="#d04213"/>
			<stop offset=".869" stop-color="#d84b14"/>
			<stop offset=".933" stop-color="#e65b16"/>
			<stop offset=".993" stop-color="#f97219"/>
			<stop offset="1" stop-color="#fc7519"/>
		</linearGradient>
		<radialGradient id="g46" cx="0" cy="0" r="1" gradientUnits="userSpaceOnUse" gradientTransform="matrix(250.075,0,0,250.075,237.842,217.093)">
			<stop offset=".005" stop-color="#d1e787"/>
			<stop offset=".123" stop-color="#cee583"/>
			<stop offset=".247" stop-color="#c4de76"/>
			<stop offset=".375" stop-color="#b3d361"/>
			<stop offset=".505" stop-color="#9cc443"/>
			<stop offset=".635" stop-color="#7fb01d"/>
			<stop offset=".649" stop-color="#7bae19"/>
			<stop offset=".779" stop-color="#578d19"/>
			<stop offset=".922" stop-color="#366e1a"/>
			<stop offset="1" stop-color="#29621a"/>
		</radialGradient>
		<linearGradient id="g47" x2="1" gradientUnits="userSpaceOnUse" gradientTransform="matrix(180.614,0,0,33.133,305.188,65.145)">
			<stop offset="0" stop-color="#d3ed89"/>
			<stop offset="1" stop-color="#5f821c"/>
		</linearGradient>
		<linearGradient id="g48" x2="1" gradientUnits="userSpaceOnUse" gradientTransform="matrix(-4.287,-1.229,46.254,-161.34,282.36,130.549)">
			<stop offset=".282" stop-color="#d3ed89"/>
			<stop offset=".405" stop-color="#d3ed89"/>
			<stop offset="1" stop-color="#5f821c"/>
		</linearGradient>
		<linearGradient id="g49" x2="1" gradientUnits="userSpaceOnUse" gradientTransform="matrix(-4.125,-0.288,.139,-1.986,305.372,49.243)">
			<stop offset="0" stop-color="#7aa922"/>
			<stop offset=".2" stop-color="#d3ed89"/>
			<stop offset=".525" stop-color="#d3ed89"/>
			<stop offset="1" stop-color="#7aa922"/>
		</linearGradient>
		<linearGradient id="g50" x2="1" gradientUnits="userSpaceOnUse" gradientTransform="matrix(50.245,0,0,163.099,441.738,143.031)">
			<stop offset=".006" stop-color="#7aa922"/>
			<stop offset=".168" stop-color="#1d4a20"/>
			<stop offset=".382" stop-color="#26551b"/>
			<stop offset="1" stop-color="#7aa922"/>
		</linearGradient>
		<linearGradient id="g51" x2="1" gradientUnits="userSpaceOnUse" gradientTransform="matrix(-4.061,-0.284,.284,-4.071,442.015,222.379)">
			<stop offset="0" stop-color="#7aa922"/>
			<stop offset="1" stop-color="#d3ed89"/>
		</linearGradient>
		<linearGradient id="g52" x2="1" gradientUnits="userSpaceOnUse" gradientTransform="matrix(-2.572,2.857,-3.704,-3.335,443.834,222.752)">
			<stop offset="0" stop-color="#5f821c"/>
			<stop offset="1" stop-color="#26551b"/>
		</linearGradient>
		<linearGradient id="g53" x2="1" gradientUnits="userSpaceOnUse" gradientTransform="matrix(182.922,0,0,34.427,257.135,227.795)">
			<stop offset="0" stop-color="#7aa922"/>
			<stop offset=".4" stop-color="#d3ed89"/>
			<stop offset="1" stop-color="#7aa922"/>
		</linearGradient>
		<linearGradient id="g54" x2="1" gradientUnits="userSpaceOnUse" gradientTransform="matrix(-2.89,-3.209,4.077,-3.671,256.018,213.778)">
			<stop offset="0" stop-color="#1d3a19"/>
			<stop offset=".1" stop-color="#26551b"/>
			<stop offset=".65" stop-color="#7aa922"/>
			<stop offset="1" stop-color="#d3ed89"/>
		</linearGradient>
		<linearGradient id="g55" x2="1" gradientUnits="userSpaceOnUse" gradientTransform="matrix(2.105,3.798,-2.536,1.406,255.915,208.59)">
			<stop offset="0" stop-color="#5f821c"/>
			<stop offset=".405" stop-color="#7aa922"/>
			<stop offset=".8" stop-color="#5f821c"/>
			<stop offset="1" stop-color="#5f821c"/>
		</linearGradient>
		<linearGradient id="g56" x2="1" gradientUnits="userSpaceOnUse" gradientTransform="matrix(.598,-2.033,2.466,.725,489.922,63.029)">
			<stop offset="0" stop-color="#5b7f30"/>
			<stop offset="1" stop-color="#d3ed89"/>
		</linearGradient>
		<linearGradient id="g57" x2="1" gradientUnits="userSpaceOnUse" gradientTransform="matrix(-183.967,-52.752,16.073,-56.053,486.251,88.687)">
			<stop offset="0" stop-color="#1d3419"/>
			<stop offset=".228" stop-color="#26551b"/>
			<stop offset="1" stop-color="#7aa922"/>
		</linearGradient>
		<linearGradient id="g58" x2="1" gradientUnits="userSpaceOnUse" gradientTransform="matrix(-4.258,-1.222,46.396,-161.722,465.501,141.523)">
			<stop offset="0" stop-color="#5f821c"/>
			<stop offset="1" stop-color="#75c146"/>
		</linearGradient>
		<linearGradient id="g59" x2="1" gradientUnits="userSpaceOnUse" gradientTransform="matrix(8.262,0,0,6.438,484.736,62.244)">
			<stop offset="0" stop-color="#d3ed89"/>
			<stop offset="1" stop-color="#5f821c"/>
		</linearGradient>
		<linearGradient id="g60" x2="1" gradientUnits="userSpaceOnUse" gradientTransform="matrix(-183.43,-52.597,15.834,-55.221,485.463,90.616)">
			<stop offset="0" stop-color="#93bf81"/>
			<stop offset=".228" stop-color="#26551b"/>
			<stop offset="1" stop-color="#bde256"/>
		</linearGradient>
		<linearGradient id="g61" x2="1" gradientUnits="userSpaceOnUse" gradientTransform="matrix(.6,-2.041,2.455,.722,489.937,63.04)">
			<stop offset="0" stop-color="#5b7f30"/>
			<stop offset="1" stop-color="#d3ed89"/>
		</linearGradient>
		<linearGradient id="g62" x2="1" gradientUnits="userSpaceOnUse" gradientTransform="matrix(8.277,0,0,6.45,484.736,62.251)">
			<stop offset="0" stop-color="#d3ed89"/>
			<stop offset="1" stop-color="#5f821c"/>
		</linearGradient>
	</defs>
	<style>
		.s0 { opacity: .2;fill: url(#g1) } 
		.s1 { opacity: .2;fill: url(#g2) } 
		.s2 { opacity: .2;fill: url(#g3) } 
		.s3 { opacity: .2;fill: url(#g4) } 
		.s4 { fill: url(#g5) } 
		.s5 { fill: url(#g6) } 
		.s6 { fill: #152469 } 
		.s7 { fill: url(#g7) } 
		.s8 { fill: #172e65 } 
		.s9 { fill: url(#g8) } 
		.s10 { fill: #094b8f } 
		.s11 { fill: url(#g9) } 
		.s12 { fill: url(#g10) } 
		.s13 { opacity: .7;fill: #063367 } 
		.s14 { opacity: .4;fill: url(#g11) } 
		.s15 { opacity: .4;fill: url(#g12) } 
		.s16 { fill: url(#g13) } 
		.s17 { fill: url(#g14) } 
		.s18 { opacity: .3;fill: url(#g15) } 
		.s19 { opacity: .3;fill: url(#g16) } 
		.s20 { fill: url(#g17) } 
		.s21 { opacity: .5;fill: url(#g18) } 
		.s22 { fill: url(#g19) } 
		.s23 { fill: url(#g20) } 
		.s24 { fill: url(#g21) } 
		.s25 { fill: url(#g22) } 
		.s26 { fill: url(#g23) } 
		.s27 { fill: url(#g24) } 
		.s28 { opacity: .7;fill: #b37e00 } 
		.s29 { fill: url(#g25) } 
		.s30 { fill: #d9a200 } 
		.s31 { opacity: .7;fill: url(#g26) } 
		.s32 { fill: #a85d10 } 
		.s33 { opacity: .7;fill: url(#g27) } 
		.s34 { fill: url(#g28) } 
		.s35 { fill: #c67c0c } 
		.s36 { fill: #de980d } 
		.s37 { fill: url(#g29) } 
		.s38 { fill: url(#g30) } 
		.s39 { fill: url(#g31) } 
		.s40 { fill: url(#g32) } 
		.s41 { opacity: .3;fill: url(#g33) } 
		.s42 { opacity: .3;fill: url(#g34) } 
		.s43 { fill: url(#g35) } 
		.s44 { fill: url(#g36) } 
		.s45 { fill: #bc1b00 } 
		.s46 { fill: #b81a00 } 
		.s47 { fill: #e82e00 } 
		.s48 { fill: #f83603 } 
		.s49 { fill: #e32e00 } 
		.s50 { fill: url(#g37) } 
		.s51 { opacity: .7;fill: url(#g38) } 
		.s52 { opacity: .3;fill: #fe8411 } 
		.s53 { opacity: .6;fill: url(#g39) } 
		.s54 { opacity: .5;fill: url(#g40) } 
		.s55 { opacity: .5;fill: url(#g41) } 
		.s56 { opacity: .5;fill: #fff4c5 } 
		.s57 { opacity: .6;fill: url(#g42) } 
		.s58 { opacity: .5;fill: url(#g43) } 
		.s59 { fill: none } 
		.s60 { fill: url(#g44) } 
		.s61 { opacity: .7;fill: url(#g45) } 
		.s62 { fill: url(#g46) } 
		.s63 { fill: url(#g47) } 
		.s64 { fill: #8cac42 } 
		.s65 { fill: url(#g48) } 
		.s66 { fill: #5f821c } 
		.s67 { fill: url(#g49) } 
		.s68 { opacity: .8;fill: url(#g50) } 
		.s69 { fill: #476e32 } 
		.s70 { fill: #1d3419 } 
		.s71 { fill: url(#g51) } 
		.s72 { fill: url(#g52) } 
		.s73 { fill: url(#g53) } 
		.s74 { fill: #26551b } 
		.s75 { fill: url(#g54) } 
		.s76 { fill: url(#g55) } 
		.s77 { opacity: .7;fill: url(#g56) } 
		.s78 { opacity: .3;fill: url(#g57) } 
		.s79 { opacity: .7;fill: url(#g58) } 
		.s80 { opacity: .6;fill: url(#g59) } 
		.s81 { opacity: .3;fill: url(#g60) } 
		.s82 { opacity: .7;fill: url(#g61) } 
		.s83 { opacity: .6;fill: url(#g62) } 
		.s84 { fill: #ffffff } 
	</style>
	<g id="layer1">
		<g id="g13125">
			<g id="g6465">
				<path id="path6472" class="s0" d="m145.7 208c-8.1 0.2-16.8 1.1-25.6 2.6-9.3 1.5-19.1 3.8-29.2 6.7-10.5 3.1-21.7 7-33.2 11.6h-0.1q-0.6 0.3-0.8 0.9l-45.9 155.7c-0.3 0.8 0.2 1.6 0.7 2.1l3.1 2.3q0 0 0.1 0c0.7 0.5 1.5 0.5 1.8 0.5 0 0 0.1-0.1 0.1-0.1 17.1-6.4 32.5-11.1 46.8-14.2 14-3 26.6-4.4 38.5-4.3 10 0 19.4 1.1 28.7 3.1 8.4 1.8 16.6 4.5 25 8.1 11.8 5.1 22.6 11.5 30.7 16.6h0.1v0.1c0.2 0.1 1 0.4 1.7 0.1 0 0 2-1.1 2.6-1.5l0.2-0.1c0.4-0.3 1-0.7 1.2-1.4v-0.2q0 0 0 0.1c0.1-0.3 45.7-151.6 45.7-151.6l1.6-5.2q0-0.2 0-0.4c0-0.6-0.2-1.1-0.7-1.5q0 0 0 0c-19.5-12.7-41.5-25.1-70.4-28.8-7.3-1-14.9-1.3-22.7-1.2z"/>
				<path id="path6479" class="s1" d="m259.9 254.1c-0.5 0.1-1.1 0.3-1.9 0.8q0 0 0 0c-0.3 0.2-0.8 0.5-1.4 1-1.2 0.9-2 1.7-2.2 2.2 0 0 0 0.1 0 0.1v0.1l-46 154.2c-0.8 2.3 1.3 3.5 1.6 3.7 11.8 7.6 23 13.7 34.3 18.4 6.7 2.8 13.5 5.1 20.2 7 7.4 2.1 14.9 3.7 22.5 4.7 8.1 1.1 16.5 1.7 24.8 1.7 9 0 18.2-0.7 27.5-2.1 9.8-1.4 20-3.6 30.2-6.5 10.7-3 21.9-6.9 33.1-11.5 0 0 0.1-0.1 0.1-0.1 0.3-0.2 1-0.6 1.4-1.4 0 0 44.9-151.7 44.9-151.7q0 0 0 0 0.1-0.4 0.1-0.7c0-1.3-0.8-2-0.8-2 0 0-3.8-2.9-3.8-2.9-0.3-0.3-0.9-0.7-2.5-0.5-11.5 3.8-22.7 6.9-33.1 9.4-10.1 2.3-19.9 4.1-29.1 5.2-17.3 2.1-33 2.1-48 0-13.1-1.9-25.6-5.4-38-10.8-10.1-4.4-20.3-10-32.2-17.8h-0.1 0.1c-0.8-0.3-1.3-0.5-1.7-0.5z"/>
				<path id="path6486" class="s2" d="m312.4 66.3c0 0-0.8 0.6-0.8 0.6q-2.3 1.7-2.8 2.6 0 0 0 0c0 0.1-0.1 0.6-0.1 0.6 0 0-46.1 154.5-46.1 154.5q-0.2 0.6-0.2 1c0 1.7 1.5 2.6 1.6 2.6 3.6 2.4 7.4 4.7 11.2 6.8 17.7 10.7 35.2 17.8 53.5 21.7 10.6 2.3 21.6 3.5 32.7 3.6 12 0.1 24.6-1.1 37.4-3.5 19-2.9 38.2-8.6 57.3-17 0 0 0 0 0 0 0.4-0.2 1.1-0.7 1.5-1.4 0-0.1 46.9-156 46.9-156q0.2-0.4 0.2-0.8c0-1.3-1.2-2.5-2.3-3.4-0.7-0.6-1.5-1.4-2.1-1.6-1.3-0.6-2.6-0.4-3-0.2 0 0 0 0 0 0v0.1c-11.5 4.5-22.7 8.4-33.2 11.4-10.1 2.9-19.9 5.1-29.2 6.5-8.8 1.4-17.4 2.2-25.6 2.3-7.8 0.1-15.4-0.3-22.7-1.4-13.1-1.8-25.7-5.4-38.3-11.1-12.6-5.7-23.9-12.7-32.3-18.2-1.5-0.6-2.1-0.6-3.6 0.3z"/>
				<path id="path6493" class="s3" d="m163.1 23.1c-15.9 3.3-33.2 8.8-51.6 16.1-0.2 0.1-0.7 0.3-0.9 1l-2.4 7.9-44.2 148.2q0 0.2 0 0.5c0 0.7 0.3 1.6 0.6 1.9q0.2 0.1 0.3 0.1l0.3 0.2 2.7 2.1h0.1q0.1 0.2 0.2 0.2c0.6 0.2 0.7 0.2 0.9 0.2q0 0 0 0h0.1c0.4 0 1.4-0.5 1.4-0.5 40.3-15.4 72.5-21.1 101.3-17.6 12.4 1.4 24.3 4.6 36.5 9.6 9.7 4 19.7 9.2 31.5 16.5h0.2l0.2 0.1 0.1 0.1c0 0 0.9 0.4 1.7 0.2 0 0 2.9-1.3 2.9-1.3h0.1c0.4-0.3 1-0.7 1.2-1.5l29-97.3 15.7-52.2 1-3.5c0 0 0-0.1 0-0.1l0.8-2.5q0-0.1 0-0.3 0-0.1 0-0.2c0-0.6-0.2-1.1-0.7-1.4-9.2-6-16.5-10.4-23.7-14.1l-0.5-0.3c-20.8-10.7-40.8-15.9-63-16.4-13-0.2-27 1.2-41.8 4.3z"/>
			</g>
			<g id="g6495">
				<g id="g6497">
					<g id="g6499">
						<g id="g6501">
							<path id="path6520" class="s4" d="m46.9 212.7c93.7-38.6 139.1-18 179.7 9.6l-46.9 161.3c-40.8-27.4-85.1-50-179.3-11.1l45.9-159.6z"/>
						</g>
					</g>
				</g>
				<path id="path6545" class="s5" d="m3.9 377.3c0.3 0 0.8-0.3 0.8-0.3 0.7 0.5 1.2 0.8 1.2 0.8 0 0-1 0.3-2-0.5z"/>
				<path id="path6547" class="s6" d="m178 385.5c0 0 0.7 0.5 1.4 0.4l-2.8 1.6c-0.9 0.4-1.9-0.2-1.9-0.2z"/>
				<path id="path6572" class="s7" d="m4.8 377.1c0 0-0.6 0.3-0.9 0.2l-3.1-2.4c0.4 0.1 0.9 0 1.1 0z"/>
				<path id="path6574" class="s6" d="m179.6 383.2c0.4 0.2 0.7 0.5 1 1.1-0.2 0.9-0.8 1.3-1.3 1.6-0.6 0.1-1.4-0.4-1.4-0.4 0.5-0.4 1.3-0.9 1.7-2.3z"/>
				<path id="path6576" class="s8" d="m0.8 374.9c-0.6-0.5-1-1.4-0.7-2.2l0.5-0.2c-0.2 1.2 0.6 2 1.3 2.4 0 0-0.5 0.2-1.1 0z"/>
				<path id="path6601" class="s9" d="m4.6 376.9c89.5-35 129.6-15.9 170.4 10.3-24.4-15.7-49.5-28.2-84.2-28.5-23.2-0.1-50.6 5.8-84.9 19.1 0 0-0.7-0.3-1.3-0.9z"/>
				<g id="g6603">
					<path id="path6605" class="s10" d="m178 385.6c-40.8-27.5-83-48.4-176-10.6-0.7-0.4-1.7-1.4-1.4-2.5 94.4-40.2 138.3-16.7 179.1 10.7-0.4 1.5-1.2 2-1.7 2.4z"/>
					<path id="path6607" class="s10" d="m178.1 385.6l-3.3 1.7c-40.8-26.2-82.1-44.4-170-10.2l-2.9-2.2c93-37.8 135.4-16.8 176.2 10.7z"/>
				</g>
				<path id="path6614" class="s11" d="m179.6 383.3l47-161c0.5 0.3 0.8 0.6 1.1 0.9l-47.1 161.2c-0.3-0.7-1-1.1-1-1.1z"/>
				<path id="path6639" class="s12" d="m226.9 221.2h0.1c0.6 0.4 0.8 1.2 0.7 2l-0.1 0.1c-0.2-0.3-0.5-0.6-1-0.9z"/>
				<path id="polygon6641" class="s13" d="m46.3 212.9l-45.7 159.6-0.5 0.2 45.7-159.9z"/>
				<path id="path6648" fill-rule="evenodd" class="s14" d="m46.3 212.9l4.9 4.2 0.2 0.2-46.4 160.5c-0.3-0.1-0.7-0.2-1.1-0.5q0 0 0 0l-3.1-2.4c-0.6-0.5-1-1.4-0.7-2.2l43.5-152.3 2.2-7.6zm-45.1 159.3q-0.2 0.1-0.5 0.2 0.3-0.1 0.5-0.2zm0.1 0q0 0-0.1 0 0.1 0 0.1 0zm0.5 2.7c-0.3-0.2-0.6-0.5-0.9-0.9 0.3 0.4 0.6 0.7 0.9 0.9q0 0 0 0z"/>
				<path id="path6655" class="s15" d="m227.5 221.9l-0.9 0.5-3.9 3.8q0 0 0 0.1c-6.3 21.6-41.9 143.1-47.3 161.3 0.4 0.1 0.8 0.1 1.2-0.1l2.8-1.6q0 0 0 0c0.4-0.4 1-0.8 1.2-1.6q0 0.1 0 0.1l45.5-155.9 1.6-5.3c0-0.3 0-0.6-0.1-0.9 0-0.1-0.1-0.3-0.1-0.4z"/>
				<path id="path6664" class="s16" d="m226.6 222.3l-3.9 3.9c-13.5-9-50.8-32.1-92.9-28.7-34.1 2.8-64.2 13.8-78.5 19.7l-5-4.3 0.4-1.1c94.1-39 139.5-18.2 180.2 9.4h0.1z"/>
				<path id="path6671" class="s17" d=""/>
				<path id="path6682" class="s18" d="m50.7 216.7c94.1-39 136.2-13.2 172.7 8.8l-0.7 0.7c-37.6-23.3-77.6-47.2-171.3-8.9z"/>
				<path id="path6691" class="s19" d="m46.7 211.7c94.2-39 137.7-19 180.3 9.5l-0.4 1.1c-44.7-29-85.5-48.3-179.2-10z"/>
				<path id="path6698" class="s20" d="m46.3 212.9l-0.5-0.1c0.2-0.7 0.7-0.9 0.8-1h0.1c0 0-0.1 0.3-0.4 1.1z"/>
				<path id="path6721" class="s21" d="m178.1 385.6c-40.7-27.5-83-48.4-176-10.7-0.6-0.3-1.6-1.3-1.4-2.4 94.4-40.2 138.3-16.7 179.1 10.7-0.4 1.5-1.2 2-1.7 2.4z"/>
			</g>
			<g id="g6723">
				<g id="g6725">
					<path id="path6742" class="s22" d="m251.2 237.9c40.8 27.4 82.4 47.5 178.2 14.8l-44.7 155.5c-94 38.9-139.1 16.9-179.9-10.7z"/>
				</g>
				<path id="path6749" class="s23" d="m392.7 413.8c-0.5 0.8-1.3 1.3-1.6 1.5-0.1 0-0.1 0-0.1 0 0 0-0.8 0.1-1.5-0.4 1.9-1.1 2.4-3.1 2.4-3.1 0 0 1.1 0.9 0.8 2z"/>
				<path id="path6756" class="s24" d="m392.7 413.8c0.1-0.9-0.9-1.7-0.9-1.7l44.6-155.4c0 0 0.7 0.6 0.9 1.1z"/>
				<path id="path6763" class="s25" d="m437.3 257.9c0 0-0.1-0.5-0.9-1.1 0.3-1.6 0.1-1.9 0.1-1.9l0.1 0.1c0 0 1.1 1.1 0.7 2.9z"/>
				<path id="path6770" class="s26" d="m432.9 254.1c0 0-1.2-1.5-3.8-1 0.2-0.6 0.4-1.3 1.2-1.6 1.5-0.2 2.2 0.1 2.5 0.5 0.2 0.1 0.3 0.3 0.3 0.3 0.2 0.9-0.2 1.8-0.2 1.8z"/>
				<path id="path6777" class="s27" d="m432.8 252l3.8 3c0.2 1-0.2 2-0.2 2l-3.7-3c0 0 0.4-1.1 0.1-2z"/>
				<path id="polygon6779" class="s28" d="m432.7 253.8l3.7 3-44.5 155.4-0.2 0.4-3.9-3.4z"/>
				<path id="path6786" class="s29" d="m429.3 253.2c-94.4 32.2-137.6 13.1-178.4-14.4 0.1-0.3 0.3-1-0.1-1.7 40.7 27.5 85.8 46.2 179.5 14.4-0.7 0.5-0.8 1.2-1 1.7z"/>
				<path id="polygon6788" class="s30" d="m246.7 238.6l-45.3 158.3-3.6 2.8v-0.3l45.8-158.7z"/>
				<path id="path6795" class="s31" d="m384.2 408.4l44.9-155.4c0.1 0 0.2-0.1 0.3-0.1 2.3-0.2 3.5 1 3.5 1l-44.8 155.1c0 0-1.8-1.5-3.9-0.6z"/>
				<path id="path6797" class="s32" d="m391.1 415.3c-92.2 39.4-151.3 15.1-192-12.3l0.4-0.4c40.7 27.5 103.4 50.3 190 12.1 0.7 0.6 1.6 0.6 1.6 0.6z"/>
				<path id="path6804" class="s33" d="m388.1 409l3.8 3.2c0 0-0.5 1.8-2.5 2.7l-3.9-3.2c2-0.9 2.6-2.7 2.6-2.7z"/>
				<path id="path6813" class="s34" d="m384.3 408.2c-0.3 2.4 2 3.8 2 3.8-97.7 35.4-139.6 14.3-183-11.9 0.7-0.5 1.1-0.9 1.5-2.6 0.1 0 0.6-0.1 0.7 0 42 25.8 90.5 47.2 178.8 10.7z"/>
				<path id="path6815" class="s35" d="m199.5 402.8l3.8-2.7c37.3 23.3 89.6 48.8 182.4 11.5l3.8 3.2c-86.2 38.3-149.3 15.4-190-12z"/>
				<path id="path6817" class="s36" d="m199.8 402.9l-0.4 0.3c0 0-2.4-1.3-1.6-3.8 0.2 2.4 2 3.5 2 3.5z"/>
				<path id="path6828" class="s37" d="m197.8 399.4l3.6-2.9c-0.2 2.5 2.3 3.5 2.3 3.5l-3.9 3c0 0-2.2-1.1-2-3.6z"/>
				<path id="path6839" class="s38" d="m201.1 396.6c1.3-0.5 2.4 0 3.8 0.8-0.5 1.7-0.8 2.3-1.5 2.8-0.8-0.5-2.5-1.5-2.3-3.6z"/>
				<path id="path6841" class="s36" d="m247.4 237.3l-0.7 1.3-3.2 2.3c0.2-1.1 2.8-2.9 3.6-3.5 0.1-0.1 0.3-0.1 0.3-0.1z"/>
				<path id="path6848" class="s39" d="m250.9 238.8c-1.9-1.1-3.6-0.5-4.2-0.2 0.1-0.3 0.5-1.2 0.5-1.2 1.5-1 2.2-1 3.6-0.3 0.3 0.7 0.2 1.3 0.1 1.7z"/>
				<path id="path6855" class="s40" d="m205.2 397.7c-1.3-0.8-2.8-1.4-4.1-0.9l45.6-158.2c0.7-0.3 2.4-0.9 4.2 0.2z"/>
				<path id="path6864" class="s41" d="m244.4 239.7c13.9 12.1 74.5 61.6 192.2 15.3l-3.8-3c-0.3-0.4-1-0.7-2.5-0.5-93.7 31.8-138.8 13.1-179.5-14.4q0 0.1 0 0c-1.4-0.7-2.1-0.7-3.6 0.3-1.9 1.3-1.9 1.3-2.8 2.3z"/>
				<path id="path6873" class="s42" d="m436.6 255c-117.7 46.3-178.3-3.2-192.2-15.3-0.4 0.3-0.6 0.7-0.8 1v0.2q0 0 0 0l-0.1 0.1c12.2 10.6 73 63.6 193.9 15.7-0.2-1.1-0.8-1.7-0.8-1.7z"/>
				<path id="path6890" class="s43" d="m385.7 411.6c0 0-1.7-1-1.4-3.4 2.4-0.7 3.9 0.8 3.9 0.8 0 0-0.4 1.7-2.5 2.6z"/>
			</g>
			<g id="g6892">
				<path id="path6915" class="s44" d="m234.4 193.2c-24.5-16.5-50.9-32-88.4-32.3-24.7-0.2-54.2 6.9-91.6 22.3l46.3-160.6c94.1-38.9 139.3-16.8 180 10.7z"/>
				<path id="path6917" class="s45" d="m234.4 193.1l46.3-159.8c0.5 0.4 0.8 0.6 1 0.9l-46.3 160.1c-0.3-0.7-1-1.2-1-1.2z"/>
				<path id="path6919" class="s45" d="m58.9 187.9c14.8-6.1 28.5-10.6 41.3-13.7 3.1-0.8 5.8-1.4 9.1-2.1 3-0.6 6-1.2 8.8-1.6 4.6-0.7 9-1.2 13.3-1.6 3.6-0.3 7.2-0.5 10.7-0.5 3.4 0 6.7 0 9.9 0.2q4.3 0.2 8.5 0.7 3.5 0.4 6.9 0.9 7.1 1.2 13.8 3.1c18 5.1 34.1 13.8 48.8 23.6-0.1 0.1-0.5-0.1-0.6-0.2-0.2 0-0.2 0-0.4-0.1-19.9-12.6-41.2-23.6-67.6-26.9-27-3.3-58.5 1.4-100.8 18.2 0 0-1 0.4-1.4 0.5-0.3 0.1-0.3-0.2-0.3-0.5z"/>
				<path id="path6921" class="s45" d="m232.8 195.5c0 0 0.6 0.4 1.3 0.3l-2.9 1.3c-0.8 0.2-1.7-0.3-1.7-0.3z"/>
				<path id="path6923" class="s46" d="m58.9 187.9c0 0 0.2 0.3 0.3 0.5-0.3 0.1-0.3 0.1-1-0.2-0.1 0-0.2-0.1-0.4-0.2l-3-2.4-0.3-0.2c0.4 0 0.7 0.1 0.9 0.1z"/>
				<path id="path6925" class="s47" d="m234.4 193.2c0.3 0.2 0.7 0.3 1 1-0.2 0.8-0.9 1.3-1.3 1.6-0.7 0.2-1.4-0.4-1.4-0.4 0.4-0.3 1.3-0.9 1.7-2.2z"/>
				<path id="path6927" class="s48" d="m281 32.2l0.1 0.1c0.6 0.4 0.8 1.2 0.6 1.9v0.1c-0.3-0.3-0.5-0.6-1-1z"/>
				<path id="path6929" class="s49" d="m54.6 185.5c-0.5-0.3-0.9-1.7-0.6-2.5l0.6-0.2c-0.3 1.2 0.4 2.5 1.1 2.9 0 0-0.5 0.2-1.1-0.2z"/>
				<g id="g6931">
					<g id="g6933">
						<path id="SVGID_37_" class="s50" d="m100.8 22.6l-0.5-0.1c0.2-0.7 0.7-0.9 0.9-0.9v-0.1c0 0-0.2 0.4-0.4 1.1z"/>
					</g>
				</g>
				<g id="g6941">
					<path id="path6943" class="s47" d="m232.9 195.5c-43.9-30.4-97.6-49.5-177.3-9.9l3.2 2.3c87.2-35.6 132.6-16.3 170.9 8.9z"/>
					<path id="path6945" class="s47" d="m232.8 195.5c-25.1-16.4-48.6-30-85.8-31-27.1 0.5-48 4-91.3 21.2-0.7-0.4-1.5-1.3-1.3-2.5 37.6-16 67.4-22.9 92.1-22.6 37.5 0.3 63.4 16 87.9 32.5-0.4 1.5-1.2 2-1.6 2.4z"/>
				</g>
				<path id="path6947" class="s49" d="m100.3 22.5l0.4 0.1-46.2 160.6c-0.1-0.1-0.5-0.2-0.5-0.2z"/>
				<path id="path6974" class="s51" d="m280.7 33.3c-40.7-27.6-86.3-48.9-179.9-10.7 0.2-0.8 0.4-1 0.4-1 94-39 139.1-17 179.8 10.6z"/>
				<path id="path6976" class="s52" d="m275.4 38.6c-33.2-21.5-77.2-48.6-170.8-10.3 0.2-0.8 0.5-1.2 0.5-1.2 94-38.9 138.4-9.3 170.6 10.4z"/>
				<g id="g6978" style="opacity: .6">
					<path id="path6985" class="s53" d="m102.3 23.7c-0.3 0.1-1.2 0-1.2 0l-46.7 162 3.4 2.3c0.2 0.1 0.3 0.2 0.4 0.2 0.6 0.3 0.7 0.3 0.9 0.3l45.8-160.9 0.1-0.5z"/>
				</g>
				<path id="path6992" class="s54" d="m275.6 37.6q0 0 0 0.1c0-0.1 0.1-0.1 0-0.1z"/>
				<path id="path6999" class="s55" d="m276.7 33.9c-15.4-10.4-41.2-27.2-78.8-29.8-40-2.8-90.6 17.5-95.6 19.6l2.7 3.4-0.1 0.5c0.1-0.1 0.3-0.1 0.4-0.2 93.2-40.1 150.7-3.9 170.3 10.2l0.1-0.1 2.9-2.4q-0.9-0.6-1.9-1.2z"/>
				<path id="path7001" class="s56" d="m102.3 23.7c5-2.1 55.6-22.4 95.6-19.6 37.6 2.6 63.4 19.5 78.8 29.8q1 0.6 1.9 1.2l2.9-2.3c-0.2-0.2-0.2-0.4-0.4-0.5-39.9-27-83.9-48.7-173.8-13.2-2 0.8-4 1.6-6.1 2.4z"/>
				<path id="path7008" class="s57" d="m281 32.3l-0.3 1-2.1 1.8-2.9 2.4q0 0.1-0.1 0.2c-9.7 33.3-40 137.3-46.4 159 0 0 0.1 0 0.2 0.1 0 0 0 0 0.1 0 0 0 0.9 0.5 1.7 0.3l2.9-1.3q0 0-0.1 0 0.1 0 0.1 0c0.4-0.3 1.1-0.8 1.3-1.5v-0.1c0 0 0 0 0 0l44.4-153.5 1.1-3.8 0.1-0.1 0.7-2.5c0.1-0.6 0-1.7-0.7-2z"/>
				<path id="path7025" class="s58" d="m232.9 195.4c-25.1-16.4-48.6-30-85.8-31-27.1 0.5-48 4-91.3 21.2-0.7-0.4-1.5-1.3-1.3-2.4 37.6-16 67.4-23 92.1-22.7 37.5 0.4 63.4 16 87.9 32.6-0.4 1.4-1.2 2-1.6 2.3z"/>
				<path id="path7027" fill-rule="evenodd" class="s59" d="m100.8 21.8c-0.2 0.1-0.4 0.4-0.5 0.7l-2.4 8.2-43.9 152.3c-0.3 0.8 0.1 2.2 0.6 2.5q0.1 0 0.1 0l0.1 0.1-0.4 0.1 46.7-162c0 0 0.9 0.1 1.2 0z"/>
				<path id="path7029" class="s48" d="m281 32.2l0.1 0.1c0.6 0.4 0.8 1.2 0.6 1.9v0.1c-0.3-0.3-0.5-0.6-1-1z"/>
				<g id="g7031">
					<g id="g7033">
						<path id="SVGID_46_" class="s60" d="m100.8 22.6l-0.5-0.1c0.2-0.7 0.7-0.9 0.9-0.9v-0.1c0 0-0.2 0.4-0.4 1.1z"/>
					</g>
				</g>
				<path id="path7066" class="s61" d="m280.7 33.3c-40.7-27.6-86.3-48.9-179.9-10.6 0.2-0.8 0.4-1.1 0.4-1.1 94-39 139.1-17 179.8 10.6z"/>
			</g>
			<g id="g7068">
				<path id="path7091" class="s62" d="m484.9 60.6c-93.9 38.8-139 17-179.7-10.4l-46.3 160.7c40.6 27.6 89.7 50.2 179.8 9.9z"/>
				<path id="path7098" class="s63" d="m484.7 60.7c-93.9 38.8-138.8 17-179.5-10.4 0.1-0.4 0.2-1 0-1.7 40.7 27.4 86.7 49.4 180.6 10.6-0.8 0.4-0.8 1-1.1 1.5z"/>
				<path id="polygon7100" class="s64" d="m301.4 49.8l-45.9 159.4-3.5 2.8v-0.4l46-159.4z"/>
				<path id="path7109" class="s65" d="m259 211c-1.4-0.8-2.5-2.5-3.8-1.9l46-159.2c0.7-0.3 2.5-0.9 4.2 0.4z"/>
				<path id="path7111" class="s66" d="m301.8 48.8l-0.5 1.1-3.3 2.5c0.3-1.1 2.8-2.9 3.6-3.5 0.2-0.1 0.2-0.1 0.2-0.1z"/>
				<path id="path7122" class="s67" d="m305.2 50.2c-1.7-1.1-3.3-0.6-4-0.3 0.1-0.3 0.4-1 0.4-1 1.5-1 2.1-1 3.6-0.3 0.2 0.5 0.2 1 0 1.6z"/>
				<path id="polygon7133" class="s68" d="m488.2 61.5l3.8 3-46.7 160.1-3.6-3.1z"/>
				<path id="path7135" class="s69" d="m446.2 225.8c0.1-1-0.8-1.7-0.8-1.7l46.5-159.8c0 0 0.8 0.7 1 1.2z"/>
				<path id="path7137" class="s70" d="m444.6 227.2c-25.1 11.4-48.8 17.3-70.8 19.2-38.1 4.3-68.9-3.9-94.1-16.3-9.8-4.5-18.6-9.6-26.5-14.9l0.5-0.3c7.9 5.3 16.6 10.6 26 15.2 25.6 11.8 57.5 19.5 94.1 16.4 20.8-2.4 43.8-8.6 69.2-19.8 0.7 0.5 1.6 0.5 1.6 0.5z"/>
				<path id="path7144" class="s71" d="m439.6 224.3c0 0-1.8-1.6-1.5-4 2.4-0.6 4 0.9 4 0.9 0 0-0.5 2.2-2.5 3.1z"/>
				<path id="path7151" class="s72" d="m442.1 221.2l3.3 3c0 0-0.5 1.8-2.5 2.7l-3.5-3c2.1-0.8 2.7-2.7 2.7-2.7z"/>
				<path id="path7160" class="s73" d="m438.7 220.2c-0.4 2.4 1.4 4.1 1.4 4.1-93.9 38.9-142.3 16-183-11.5 0.8-0.5 0.8-0.5 1.3-2.2 40.7 27.5 102.1 46.8 180.3 9.6z"/>
				<path id="path7162" class="s74" d="m253.7 215.1l3.5-2.4c40.6 26.2 88.7 48.9 182.5 11.2l3.4 2.9c-90.1 39.8-147.7 17.6-189.4-11.7z"/>
				<path id="path7164" class="s66" d="m446.2 225.8c-0.4 0.8-1.3 1.3-1.6 1.4q-0.1 0.1-0.1 0.1c0 0-0.6 0.1-1.5-0.5 1.9-1 2.4-3 2.4-3 0 0 1.1 0.9 0.8 2z"/>
				<path id="path7166" class="s74" d="m253.8 215l-0.4 0.4c0 0-2.3-1.3-1.4-3.8 0.2 2.5 1.8 3.4 1.8 3.4z"/>
				<path id="path7177" class="s75" d="m252 211.6l3.4-2.7c-0.3 2.6 2 3.7 2 3.7l-3.5 2.6c0 0-2.1-1-1.9-3.6z"/>
				<path id="path7188" class="s76" d="m255.3 208.9c1.1-0.3 2.2 0.9 3.6 2-0.5 1.7-0.9 1.4-1.6 1.9-0.8-0.5-2.3-1.7-2-3.9z"/>
				<path id="path7195" class="s77" d="m492.3 62.8c0 0.6-0.4 1.6-0.4 1.6l-3.6-2.9c0 0 0.5-1.2 0.3-2.1 1.2 0.5 3.5 3.1 3.7 3.4z"/>
				<path id="path7204" fill-rule="evenodd" class="s78" d="m298.6 51.4c0.9-1 2.4-2.1 3-2.5 1.5-1 2.2-1 3.6-0.3 40.6 27.3 86.7 49.4 180.3 10.7h0.1c0.4-0.3 2.4-0.6 4 0.8 0.8 0.8 1.9 1.6 2.6 2.6-111.5 53.9-177.9 1.8-193.6-11.3zm6.6-1.2q0 0 0 0 0 0 0 0zm0.1-0.6q0 0 0 0 0 0 0 0zm-0.1 0.6c0.1-0.2 0.1-0.4 0.1-0.6q0 0.4-0.1 0.6z"/>
				<path id="path7211" class="s79" d="m438.2 220.6l46.5-159.9c2.5-0.5 3.7 0.9 3.7 0.9l-46.3 159.6c0 0-1.9-1.4-3.9-0.6z"/>
				<path id="path7218" class="s80" d="m484.7 60.7c0.2-0.6 0.3-0.9 0.9-1.4 0.4-0.3 2.4-0.6 4 0.8 1.6 1.4 4 3.1 3.3 5.4-0.2-0.5-0.9-1.1-0.9-1.1l-3.6-2.8c0 0-1.1-1.3-3.7-0.9z"/>
				<path id="path7227" class="s81" d="m298.6 51.4c-0.2 0.3-0.4 0.5-0.6 0.8l-0.2 0.6c14.2 11.9 81.3 67 195.2 11.6-0.1-0.6-0.4-1.2-0.8-1.7-111.5 53.9-177.9 1.8-193.6-11.3z"/>
				<path id="path7234" class="s82" d="m492.3 62.8c0 0.6-0.4 1.6-0.4 1.6l-3.6-2.9c0 0 0.5-1.2 0.3-2.1 1.2 0.5 3.5 3.1 3.7 3.4z"/>
				<path id="path7241" class="s83" d="m484.7 60.7c0.2-0.6 0.3-0.9 0.9-1.4 0.4-0.3 2.4-0.6 4 0.8 1.6 1.5 4 3.1 3.3 5.4-0.2-0.5-0.9-1.1-0.9-1.1l-3.6-2.8c0 0-1.1-1.3-3.7-0.9z"/>
			</g>
		</g>
		<g id="g8498">
			<g id="g8413">
				<g id="g5611">
					<path id="path4668" class="s84" d="m728.2 98.9l-40.4 143h-19.6l-29.4-104.5q-1.9-6.7-2.3-14.6h-0.4q-0.6 7.4-2.6 14.4l-29.6 104.7h-19.5l-41.8-143h18.4l30.4 109.7q1.9 6.9 2.4 14.4h0.5q0.5-5.3 3.1-14.4l31.6-109.7h16.1l30.3 110.5q1.6 5.7 2.4 13.4h0.4q0.4-5.2 2.7-13.8l29.2-110.1z"/>
					<path id="path4670" class="s84" d="m747.8 113.8q-4.4 0-7.5-3-3-2.9-3-7.5 0-4.6 3-7.6 3.1-3.1 7.5-3.1 4.5 0 7.6 3.1 3.2 3 3.2 7.6 0 4.4-3.2 7.4-3.1 3.1-7.6 3.1zm-8.4 26h16.4v102.1h-16.4z"/>
					<path id="path4672" class="s84" d="m865.3 241.9h-16.3v-58.2q0-32.6-23.7-32.6-12.3 0-20.4 9.3-8 9.2-8 23.3v58.2h-16.3v-102.1h16.3v16.9h0.4q11.6-19.3 33.5-19.3 16.8 0 25.7 10.9 8.8 10.7 8.8 31.2z"/>
					<path id="path4674" fill-rule="evenodd" class="s84" d="m974 241.9h-16.4v-17.3h-0.4q-11.4 19.7-35.1 19.7-19.2 0-30.8-13.7-11.5-13.7-11.5-37.4 0-25.3 12.8-40.6 12.8-15.2 34-15.2 21 0 30.6 16.5h0.4v-63.2h16.4zm-16.4-46.2v-15q0-12.4-8.2-21-8.1-8.6-20.7-8.6-15 0-23.5 11-8.6 11-8.6 30.3 0 17.7 8.2 28 8.2 10.1 22.1 10.1 13.7 0 22.1-9.8 8.6-9.9 8.6-25z"/>
					<path id="path4676" fill-rule="evenodd" class="s84" d="m1041.7 244.3q-22.7 0-36.2-14.3-13.5-14.3-13.5-38 0-25.7 14.1-40.2 14-14.4 38-14.4 22.8 0 35.6 14 12.8 14.1 12.8 39 0 24.5-13.8 39.2-13.8 14.7-37 14.7zm1.2-93.2q-15.8 0-25 10.8-9.1 10.7-9.1 29.5 0 18.2 9.2 28.7 9.3 10.4 24.9 10.4 15.8 0 24.3-10.2 8.6-10.3 8.6-29.3 0-19.1-8.6-29.5-8.5-10.4-24.3-10.4z"/>
					<path id="path4678" class="s84" d="m1238.5 139.8l-30.7 102.1h-16.9l-21-73.1q-1.2-4.2-1.6-9.5h-0.4q-0.3 3.6-2.1 9.3l-22.9 73.3h-16.3l-30.9-102.1h17.1l21.2 76.8q1 3.5 1.4 9.2h0.8q0.3-4.4 1.8-9.4l23.5-76.6h14.9l21.2 77q1 3.7 1.5 9.2h0.8q0.2-3.9 1.7-9.2l20.7-77z"/>
					<path id="path4680" class="s84" d="m1243.4 238.2v-17.5q12.1 9.8 26.6 9.8 19.4 0 19.4-14.3 0-4.1-1.7-6.9-1.6-2.9-4.5-5.1-2.8-2.2-6.7-3.9-3.7-1.8-8.1-3.7-6.2-2.7-10.9-5.4-4.5-2.8-7.7-6.1-3.1-3.5-4.7-7.9-1.5-4.4-1.5-10.3 0-7.2 3-12.7 2.9-5.5 7.9-9.2 4.9-3.8 11.2-5.7 6.4-1.9 13.2-1.9 12 0 21.4 4.6v16.5q-10.2-7.4-23.4-7.4-4.1 0-7.5 1.1-3.3 1-5.7 2.9-2.4 1.9-3.7 4.6-1.3 2.6-1.3 5.8 0 4 1.3 6.7 1.3 2.7 3.9 4.8 2.5 2.1 6.1 3.8 3.6 1.7 8.2 3.7 6.1 2.6 11 5.3 4.8 2.7 8.2 6.2 3.5 3.4 5.3 7.9 1.9 4.5 1.9 10.7 0 7.6-3.1 13.1-3 5.6-8 9.3-5.1 3.7-11.6 5.5-6.6 1.8-13.8 1.8-14.2 0-24.7-6.1z"/>
				</g>
				<g id="g5621">
					<path id="path4682" class="s84" d="m641.2 413.5h-75.8v-143h72.6v15.1h-55.8v47.6h51.6v15.1h-51.6v50.1h59z"/>
					<path id="path4684" class="s84" d="m803.3 413.5h-16.4v-58.6q0-17-5.2-24.6-5.2-7.6-17.6-7.6-10.5 0-17.8 9.6-7.3 9.6-7.3 23v58.2h-16.4v-60.6q0-30.2-23.2-30.2-10.8 0-17.7 9.1-7 9-7 23.5v58.2h-16.4v-102.1h16.4v16.1h0.4q10.8-18.5 31.7-18.5 10.4 0 18.2 5.9 7.8 5.8 10.7 15.2 11.4-21.1 33.9-21.1 33.7 0 33.7 41.6z"/>
					<path id="path4686" fill-rule="evenodd" class="s84" d="m846.7 398.8h-0.4v14.7h-16.4v-151.2h16.4v67h0.4q12-20.3 35.3-20.3 19.6 0 30.7 13.7 11.2 13.7 11.2 36.8 0 25.6-12.5 41-12.5 15.4-34.1 15.4-20.3 0-30.6-17.1zm-0.4-41.2v14.2q0 12.7 8.2 21.6 8.2 8.7 20.9 8.7 14.9 0 23.2-11.3 8.5-11.4 8.5-31.6 0-17.1-7.9-26.8-7.9-9.7-21.3-9.7-14.3 0-22.9 10-8.7 9.9-8.7 24.9z"/>
					<path id="path4688" fill-rule="evenodd" class="s84" d="m1023.5 366.5h-72.1q0.4 17.1 9.2 26.4 8.7 9.2 24.1 9.2 17.2 0 31.7-11.3v15.3q-13.5 9.8-35.6 9.8-21.6 0-34-13.9-12.4-13.9-12.4-39.2 0-23.8 13.5-38.8 13.6-15 33.6-15 20 0 31 13 11 12.9 11 36zm-16.8-13.9q-0.1-14.2-6.8-22-6.7-7.9-18.7-7.9-11.6 0-19.6 8.3-8.1 8.2-10 21.6z"/>
					<path id="path4690" fill-rule="evenodd" class="s84" d="m1127.2 413.5h-16.4v-17.3h-0.4q-11.4 19.7-35.1 19.7-19.2 0-30.8-13.7-11.5-13.7-11.5-37.4 0-25.3 12.8-40.6 12.8-15.2 34-15.2 21 0 30.6 16.5h0.4v-63.2h16.4zm-16.4-46.2v-15q0-12.4-8.2-21-8.1-8.6-20.7-8.6-15 0-23.5 11-8.6 11-8.6 30.3 0 17.7 8.2 28 8.2 10.1 22.1 10.1 13.7 0 22.1-9.8 8.6-9.9 8.6-25z"/>
					<path id="path4692" fill-rule="evenodd" class="s84" d="m1241.4 413.5h-16.4v-17.3h-0.4q-11.3 19.7-35.1 19.7-19.2 0-30.8-13.7-11.4-13.7-11.4-37.4 0-25.3 12.7-40.6 12.8-15.2 34-15.2 21.1 0 30.6 16.5h0.4v-63.2h16.4zm-16.4-46.2v-15q0-12.4-8.1-21-8.2-8.6-20.8-8.6-14.9 0-23.5 11-8.6 11-8.6 30.3 0 17.7 8.2 28 8.3 10.1 22.1 10.1 13.7 0 22.2-9.8 8.5-9.9 8.5-25z"/>
					<path id="path4694" fill-rule="evenodd" class="s84" d="m1348.7 366.5h-72.1q0.4 17.1 9.2 26.4 8.8 9.2 24.1 9.2 17.3 0 31.8-11.3v15.3q-13.5 9.8-35.6 9.8-21.7 0-34-13.9-12.4-13.9-12.4-39.2 0-23.8 13.5-38.8 13.5-15 33.6-15 20 0 31 13 10.9 12.9 10.9 36zm-16.7-13.9q-0.1-14.2-6.9-22-6.7-7.9-18.6-7.9-11.6 0-19.7 8.3-8.1 8.2-10 21.6z"/>
					<path id="path4696" fill-rule="evenodd" class="s84" d="m1453.5 413.5h-16.4v-17.3h-0.4q-11.4 19.7-35.1 19.7-19.2 0-30.8-13.7-11.5-13.7-11.5-37.4 0-25.3 12.8-40.6 12.8-15.2 34-15.2 21 0 30.6 16.5h0.4v-63.2h16.4zm-16.4-46.2v-15q0-12.4-8.2-21-8.1-8.6-20.7-8.6-15 0-23.5 11-8.6 11-8.6 30.3 0 17.7 8.2 28 8.2 10.1 22.1 10.1 13.7 0 22.1-9.8 8.6-9.9 8.6-25z"/>
				</g>
			</g>
			<g id="g8443">
				<g id="g5586">
				</g>
				<g id="g5576">
					<path id="path4714" class="s84" d="m1524.2 407.9h-45.4v-7.7l22-22.1q8.4-8.4 11.9-13.9 3.7-5.7 3.7-12 0-6.6-3.8-10.1-3.7-3.6-10.6-3.6-10.1 0-19.3 8.6v-9q8.8-6.9 20.5-6.9 10.1 0 15.9 5.5 5.8 5.4 5.8 14.6 0 7.3-4 14.2-4 6.9-14.4 17.2l-17.4 17.2v0.2h35.1z"/>
					<path id="path4716" fill-rule="evenodd" class="s84" d="m1555.4 409.1q-11.2 0-17.5-9.6-6.3-9.6-6.3-27.8 0-20 6.6-30.3 6.5-10.2 18.9-10.2 23.6 0 23.6 38.6 0 19.2-6.6 29.3-6.7 10-18.7 10zm1.2-70.6q-16.1 0-16.1 32.8 0 30.6 15.8 30.6 15.6 0 15.6-31.2 0-32.2-15.3-32.2z"/>
					<path id="path4718" fill-rule="evenodd" class="s84" d="m1609.5 409.1q-11.2 0-17.5-9.6-6.3-9.6-6.3-27.8 0-20 6.6-30.3 6.5-10.2 18.9-10.2 23.6 0 23.6 38.6 0 19.2-6.6 29.3-6.7 10-18.7 10zm1.2-70.6q-16.1 0-16.1 32.8 0 30.6 15.8 30.6 15.6 0 15.6-31.2 0-32.2-15.3-32.2z"/>
					<path id="path4720" fill-rule="evenodd" class="s84" d="m1646 406.6v-8.3q6.3 3.6 13.3 3.6 10.3 0 15.9-8.3 5.8-8.2 5.8-23.4-0.1 0-0.2 0-4.9 9.7-16.9 9.7-9.6 0-15.8-6.6-6.2-6.6-6.2-16.9 0-11.1 6.7-18.1 6.9-7.1 17.5-7.1 11.1 0 17.3 8.8 6.3 8.8 6.3 25.6 0 20.9-8.1 32.2-8.1 11.3-22.5 11.3-7.6 0-13.1-2.5zm19.3-68.1q-6.2 0-10.5 4.7-4.1 4.7-4.1 12 0 7.9 4.1 12.5 4.1 4.5 11.1 4.5 6.1 0 10.3-4.1 4.2-4.2 4.2-10.2 0-8.6-4.2-14-4.2-5.4-10.9-5.4z"/>
				</g>
			</g>
		</g>
	</g>
</svg>