<svg version="1.2" xmlns="http://www.w3.org/2000/svg" viewBox="0 0 622 366" width="622" height="366">
	<title>Microsoft_Windows_XP_Logo_2-svg</title>
	<defs>
		<linearGradient id="g1" x2="1" gradientUnits="userSpaceOnUse" gradientTransform="matrix(-2.555,-0.733,27.535,-96.042,409.863,77.338)">
			<stop offset="0" stop-color="#94a82e"/>
			<stop offset=".1" stop-color="#94a82e"/>
			<stop offset=".25" stop-color="#c1c800"/>
			<stop offset=".405" stop-color="#c1c800"/>
			<stop offset="1" stop-color="#94a82e"/>
		</linearGradient>
		<linearGradient id="g2" x2="1" gradientUnits="userSpaceOnUse" gradientTransform="matrix(-2.399,-0.168,.081,-1.155,424.81,29.104)">
			<stop offset="0" stop-color="#8ab11a"/>
			<stop offset=".2" stop-color="#c1c800"/>
			<stop offset=".525" stop-color="#c1c800"/>
			<stop offset="1" stop-color="#94a82e"/>
		</linearGradient>
		<linearGradient id="g3" x2="1" gradientUnits="userSpaceOnUse" gradientTransform="matrix(1.099,1.829,-1.874,1.126,532.334,34.383)">
			<stop offset="0" stop-color="#8ab11a"/>
			<stop offset="1" stop-color="#5b5d42"/>
		</linearGradient>
		<linearGradient id="g4" x2="1" gradientUnits="userSpaceOnUse" gradientTransform="matrix(-0.692,.825,-2.682,-2.251,536.217,35.594)">
			<stop offset="0" stop-color="#94a82e"/>
			<stop offset="1" stop-color="#5b5d42"/>
		</linearGradient>
		<linearGradient id="g5" x2="1" gradientUnits="userSpaceOnUse" gradientTransform="matrix(0,1.755,-0.625,0,536.565,37.083)">
			<stop offset="0" stop-color="#94a82e"/>
			<stop offset="1" stop-color="#7c803e"/>
		</linearGradient>
		<linearGradient id="g6" x2="1" gradientUnits="userSpaceOnUse" gradientTransform="matrix(-2.397,-0.168,.171,-2.437,506.522,132.556)">
			<stop offset="0" stop-color="#7c803e"/>
			<stop offset="1" stop-color="#94a82e"/>
		</linearGradient>
		<linearGradient id="g7" x2="1" gradientUnits="userSpaceOnUse" gradientTransform="matrix(-1.546,1.717,-2.198,-1.979,508.202,132.04)">
			<stop offset="0" stop-color="#7c803e"/>
			<stop offset="1" stop-color="#5b5d42"/>
		</linearGradient>
		<linearGradient id="g8" x2="1" gradientUnits="userSpaceOnUse" gradientTransform="matrix(109.336,0,0,20.569,395.95,135.786)">
			<stop offset="0" stop-color="#94a82e"/>
			<stop offset=".4" stop-color="#c1c800"/>
			<stop offset="1" stop-color="#94a82e"/>
		</linearGradient>
		<linearGradient id="g9" x2="1" gradientUnits="userSpaceOnUse" gradientTransform="matrix(-1.733,-1.924,2.426,-2.184,395.773,127.953)">
			<stop offset="0" stop-color="#7c803e"/>
			<stop offset=".1" stop-color="#7c803e"/>
			<stop offset=".65" stop-color="#8ab11a"/>
			<stop offset="1" stop-color="#94a82e"/>
		</linearGradient>
		<linearGradient id="g10" x2="1" gradientUnits="userSpaceOnUse" gradientTransform="matrix(1.259,2.271,-1.52,.843,395.069,124.017)">
			<stop offset="0" stop-color="#94a82e"/>
			<stop offset=".405" stop-color="#8ab11a"/>
			<stop offset=".8" stop-color="#94a82e"/>
			<stop offset="1" stop-color="#94a82e"/>
		</linearGradient>
		<linearGradient id="g11" x2="1" gradientUnits="userSpaceOnUse" gradientTransform="matrix(-2.551,-0.731,27.475,-95.834,519.319,83.901)">
			<stop offset="0" stop-color="#5b5d42"/>
			<stop offset="1" stop-color="#8ab11a"/>
		</linearGradient>
		<linearGradient id="g12" x2="1" gradientUnits="userSpaceOnUse" gradientTransform="matrix(-101.043,-28.969,35.837,-125,512.995,98.034)">
			<stop offset="0" stop-color="#76b22b"/>
			<stop offset=".333" stop-color="#a3c338"/>
			<stop offset=".667" stop-color="#89b926"/>
			<stop offset="1" stop-color="#617c2b"/>
		</linearGradient>
		<linearGradient id="g13" x2="1" gradientUnits="userSpaceOnUse" gradientTransform="matrix(107.071,0,0,20.697,242.59,219.719)">
			<stop offset="0" stop-color="#82abd7"/>
			<stop offset=".45" stop-color="#e4eaf0"/>
			<stop offset="1" stop-color="#4188c3"/>
		</linearGradient>
		<clipPath clipPathUnits="userSpaceOnUse" id="cp1">
			<path d="m349.65 228.7c-24.37-16.4-50.8-29.7-107.05-6.44l27.29-95.39c56.26-23.26 83.52-10.87 107.87 5.63z"/>
		</clipPath>
		<linearGradient id="g14" x2="1" gradientUnits="userSpaceOnUse" gradientTransform="matrix(-101.161,-29.002,35.871,-125.12,360.434,188.368)">
			<stop offset="0" stop-color="#203f90"/>
			<stop offset=".4" stop-color="#4b97cd"/>
			<stop offset=".725" stop-color="#b5d4ed"/>
			<stop offset="1" stop-color="#007cbd"/>
		</linearGradient>
		<linearGradient id="g15" x2="1" gradientUnits="userSpaceOnUse" gradientTransform="matrix(0,.694,-0.55,0,269.902,126.213)">
			<stop offset="0" stop-color="#82abd7"/>
			<stop offset="1" stop-color="#203f90"/>
		</linearGradient>
		<clipPath clipPathUnits="userSpaceOnUse" id="cp2">
			<path d="m302.53 13.23l-0.31-0.09c0.12-0.4 0.4-0.55 0.51-0.59l0.04-0.01c0 0-0.1 0.21-0.24 0.69z"/>
		</clipPath>
		<clipPath clipPathUnits="userSpaceOnUse" id="cp3">
			<path d="m302.53 13.23l-0.31-0.09c0.12-0.4 0.4-0.55 0.51-0.59l0.04-0.01c0 0-0.1 0.21-0.24 0.69z"/>
		</clipPath>
		<clipPath clipPathUnits="userSpaceOnUse" id="cp4">
			<path d="m302.53 13.23l-0.31-0.09c0.12-0.4 0.4-0.55 0.51-0.59l0.04-0.01c0 0-0.1 0.21-0.24 0.69z"/>
		</clipPath>
		<clipPath clipPathUnits="userSpaceOnUse" id="cp5">
			<path d="m302.53 13.23l-0.31-0.09c0.12-0.4 0.4-0.55 0.51-0.59l0.04-0.01c0 0-0.1 0.21-0.24 0.69z"/>
		</clipPath>
		<clipPath clipPathUnits="userSpaceOnUse" id="cp6">
			<path d="m302.53 13.23l-0.31-0.09c0.12-0.4 0.4-0.55 0.51-0.59l0.04-0.01c0 0-0.1 0.21-0.24 0.69z"/>
		</clipPath>
		<clipPath clipPathUnits="userSpaceOnUse" id="cp7">
			<path d="m302.53 13.23l-0.31-0.09c0.12-0.4 0.4-0.55 0.51-0.59l0.04-0.01c0 0-0.1 0.21-0.24 0.69z"/>
		</clipPath>
		<clipPath clipPathUnits="userSpaceOnUse" id="cp8">
			<path d="m302.53 13.23l-0.31-0.09c0.12-0.4 0.4-0.55 0.51-0.59l0.04-0.01c0 0-0.1 0.21-0.24 0.69z"/>
		</clipPath>
		<clipPath clipPathUnits="userSpaceOnUse" id="cp9">
			<path d="m302.53 13.23l-0.31-0.09c0.12-0.4 0.4-0.55 0.51-0.59l0.04-0.01c0 0-0.1 0.21-0.24 0.69z"/>
		</clipPath>
		<clipPath clipPathUnits="userSpaceOnUse" id="cp10">
			<path d="m302.53 13.23l-0.31-0.09c0.12-0.4 0.4-0.55 0.51-0.59l0.04-0.01c0 0-0.1 0.21-0.24 0.69z"/>
		</clipPath>
		<clipPath clipPathUnits="userSpaceOnUse" id="cp11">
			<path d="m302.53 13.23l-0.31-0.09c0.12-0.4 0.4-0.55 0.51-0.59l0.04-0.01c0 0-0.1 0.21-0.24 0.69z"/>
		</clipPath>
		<clipPath clipPathUnits="userSpaceOnUse" id="cp12">
			<path d="m302.53 13.23l-0.31-0.09c0.12-0.4 0.4-0.55 0.51-0.59l0.04-0.01c0 0-0.1 0.21-0.24 0.69z"/>
		</clipPath>
		<clipPath clipPathUnits="userSpaceOnUse" id="cp13">
			<path d="m302.53 13.23l-0.31-0.09c0.12-0.4 0.4-0.55 0.51-0.59l0.04-0.01c0 0-0.1 0.21-0.24 0.69z"/>
		</clipPath>
		<clipPath clipPathUnits="userSpaceOnUse" id="cp14">
			<path d="m302.53 13.23l-0.31-0.09c0.12-0.4 0.4-0.55 0.51-0.59l0.04-0.01c0 0-0.1 0.21-0.24 0.69z"/>
		</clipPath>
		<clipPath clipPathUnits="userSpaceOnUse" id="cp15">
			<path d="m302.53 13.23l-0.31-0.09c0.12-0.4 0.4-0.55 0.51-0.59l0.04-0.01c0 0-0.1 0.21-0.24 0.69z"/>
		</clipPath>
		<clipPath clipPathUnits="userSpaceOnUse" id="cp16">
			<path d="m302.53 13.23l-0.31-0.09c0.12-0.4 0.4-0.55 0.51-0.59l0.04-0.01c0 0-0.1 0.21-0.24 0.69z"/>
		</clipPath>
		<clipPath clipPathUnits="userSpaceOnUse" id="cp17">
			<path d="m302.53 13.23l-0.31-0.09c0.12-0.4 0.4-0.55 0.51-0.59l0.04-0.01c0 0-0.1 0.21-0.24 0.69z"/>
		</clipPath>
		<linearGradient id="g16" x2="1" gradientUnits="userSpaceOnUse" gradientTransform="matrix(107.612,0,0,20.874,274.775,106.045)">
			<stop offset="0" stop-color="#f7ae47"/>
			<stop offset=".25" stop-color="#f7ae47"/>
			<stop offset=".475" stop-color="#fac798"/>
			<stop offset=".525" stop-color="#fac798"/>
			<stop offset=".75" stop-color="#f49e34"/>
			<stop offset="1" stop-color="#f49e34"/>
		</linearGradient>
		<linearGradient id="g17" x2="1" gradientUnits="userSpaceOnUse" gradientTransform="matrix(-101.255,-29.029,35.812,-124.912,392.786,75.393)">
			<stop offset="0" stop-color="#c8191e"/>
			<stop offset=".4" stop-color="#ea621f"/>
			<stop offset=".725" stop-color="#f9b93a"/>
			<stop offset="1" stop-color="#eb6c2d"/>
		</linearGradient>
		<linearGradient id="g18" x2="1" gradientUnits="userSpaceOnUse" gradientTransform="matrix(-0.556,2.075,-1.549,-0.415,476.493,245.456)">
			<stop offset="0" stop-color="#dbaa15"/>
			<stop offset="1" stop-color="#b07f34"/>
		</linearGradient>
		<linearGradient id="g19" x2="1" gradientUnits="userSpaceOnUse" gradientTransform="matrix(0,1.757,-0.618,0,503.383,151.988)">
			<stop offset="0" stop-color="#c89828"/>
			<stop offset=".006" stop-color="#c89828"/>
			<stop offset="1" stop-color="#dbaa15"/>
		</linearGradient>
		<linearGradient id="g20" x2="1" gradientUnits="userSpaceOnUse" gradientTransform="matrix(1.1,1.832,-1.932,1.161,499.11,149.306)">
			<stop offset="0" stop-color="#ffce00"/>
			<stop offset=".006" stop-color="#ffce00"/>
			<stop offset="1" stop-color="#b07f34"/>
		</linearGradient>
		<linearGradient id="g21" x2="1" gradientUnits="userSpaceOnUse" gradientTransform="matrix(-0.677,.807,-2.71,-2.275,503.042,150.507)">
			<stop offset="0" stop-color="#ffce00"/>
			<stop offset=".006" stop-color="#ffce00"/>
			<stop offset="1" stop-color="#b07f34"/>
		</linearGradient>
		<linearGradient id="g22" x2="1" gradientUnits="userSpaceOnUse" gradientTransform="matrix(-2.4,-0.168,.171,-2.439,474.285,244.748)">
			<stop offset="0" stop-color="#c89828"/>
			<stop offset="1" stop-color="#ffce00"/>
		</linearGradient>
		<linearGradient id="g23" x2="1" gradientUnits="userSpaceOnUse" gradientTransform="matrix(-2.515,-0.721,27.258,-95.078,377.452,189.523)">
			<stop offset="0" stop-color="#dbaa15"/>
			<stop offset=".1" stop-color="#dbaa15"/>
			<stop offset=".2" stop-color="#fcc400"/>
			<stop offset=".35" stop-color="#fcc400"/>
			<stop offset="1" stop-color="#dbaa15"/>
		</linearGradient>
		<linearGradient id="g24" x2="1" gradientUnits="userSpaceOnUse" gradientTransform="matrix(-2.383,-0.683,26.681,-93.063,486.517,197.419)">
			<stop offset="0" stop-color="#b07f34"/>
			<stop offset="1" stop-color="#ffd300"/>
		</linearGradient>
		<linearGradient id="g25" x2="1" gradientUnits="userSpaceOnUse" gradientTransform="matrix(-1.197,2.688,-3.316,-1.476,475.451,243.895)">
			<stop offset="0" stop-color="#c89828"/>
			<stop offset="1" stop-color="#dbaa15"/>
		</linearGradient>
		<linearGradient id="g26" x2="1" gradientUnits="userSpaceOnUse" gradientTransform="matrix(109.281,0,0,21.044,363.767,247.669)">
			<stop offset="0" stop-color="#dbaa15"/>
			<stop offset=".4" stop-color="#ffd300"/>
			<stop offset="1" stop-color="#dbaa15"/>
		</linearGradient>
		<linearGradient id="g27" x2="1" gradientUnits="userSpaceOnUse" gradientTransform="matrix(-1.76,-1.954,2.549,-2.295,363.496,240.112)">
			<stop offset="0" stop-color="#dbaa15"/>
			<stop offset=".1" stop-color="#dbaa15"/>
			<stop offset=".7" stop-color="#ffd300"/>
			<stop offset="1" stop-color="#dbaa15"/>
		</linearGradient>
		<linearGradient id="g28" x2="1" gradientUnits="userSpaceOnUse" gradientTransform="matrix(1.244,2.245,-1.811,1.004,362.903,236.004)">
			<stop offset="0" stop-color="#dbaa15"/>
			<stop offset=".4" stop-color="#fcc400"/>
			<stop offset=".8" stop-color="#ffce00"/>
			<stop offset="1" stop-color="#dbaa15"/>
		</linearGradient>
		<clipPath clipPathUnits="userSpaceOnUse" id="cp18">
			<path d="m392.15 142.32c24.35 16.38 50.73 27.74 106.74 8.45l-26.7 92.82c-49.29 21.67-82.56 8.66-107.49-6.41z"/>
		</clipPath>
		<linearGradient id="g29" x2="1" gradientUnits="userSpaceOnUse" gradientTransform="matrix(-101.271,-29.034,35.72,-124.593,480.845,209.913)">
			<stop offset="0" stop-color="#feca00"/>
			<stop offset=".167" stop-color="#ffd300"/>
			<stop offset=".333" stop-color="#ffdb48"/>
			<stop offset=".625" stop-color="#ffce00"/>
			<stop offset="1" stop-color="#bd7c2c"/>
		</linearGradient>
		<linearGradient id="g30" x2="1" gradientUnits="userSpaceOnUse" gradientTransform="matrix(-2.445,-0.171,.088,-1.255,392.29,141.792)">
			<stop offset="0" stop-color="#fcc400"/>
			<stop offset=".2" stop-color="#fcc400"/>
			<stop offset=".525" stop-color="#ffd300"/>
			<stop offset="1" stop-color="#dbaa15"/>
		</linearGradient>
	</defs>
	<style>
		.s0 { fill: #8ab11a } 
		.s1 { fill: #94a82e } 
		.s2 { fill: url(#g1) } 
		.s3 { fill: url(#g2) } 
		.s4 { fill: url(#g3) } 
		.s5 { fill: url(#g4) } 
		.s6 { fill: #5b5d42 } 
		.s7 { fill: #7c803e } 
		.s8 { fill: url(#g5) } 
		.s9 { fill: url(#g6) } 
		.s10 { fill: url(#g7) } 
		.s11 { fill: url(#g8) } 
		.s12 { fill: url(#g9) } 
		.s13 { fill: url(#g10) } 
		.s14 { fill: url(#g11) } 
		.s15 { fill: url(#g12) } 
		.s16 { fill: #243776 } 
		.s17 { fill: #203f90 } 
		.s18 { fill: url(#g13) } 
		.s19 { fill: #4188c3 } 
		.s20 { fill: url(#g14) } 
		.s21 { fill: url(#g15) } 
		.s22 { fill: #d54c1e } 
		.s23 { fill: #ad3f2b } 
		.s24 { fill: #f7ad46 } 
		.s25 { fill: #f4a743 } 
		.s26 { fill: #f2a040 } 
		.s27 { fill: #ef9a3c } 
		.s28 { fill: #ed9439 } 
		.s29 { fill: #eb8e36 } 
		.s30 { fill: #e88833 } 
		.s31 { fill: #e6812f } 
		.s32 { fill: #e47a2d } 
		.s33 { fill: #e1742a } 
		.s34 { fill: #df6d28 } 
		.s35 { fill: #de6726 } 
		.s36 { fill: #db6124 } 
		.s37 { fill: #da5a22 } 
		.s38 { fill: #d85320 } 
		.s39 { fill: url(#g16) } 
		.s40 { fill: #f49e34 } 
		.s41 { fill: url(#g17) } 
		.s42 { fill: url(#g18) } 
		.s43 { fill: #dbaa15 } 
		.s44 { fill: url(#g19) } 
		.s45 { fill: url(#g20) } 
		.s46 { fill: url(#g21) } 
		.s47 { fill: #b07f34 } 
		.s48 { fill: url(#g22) } 
		.s49 { fill: #ffce00 } 
		.s50 { fill: url(#g23) } 
		.s51 { fill: url(#g24) } 
		.s52 { fill: url(#g25) } 
		.s53 { fill: url(#g26) } 
		.s54 { fill: #c89828 } 
		.s55 { fill: url(#g27) } 
		.s56 { fill: url(#g28) } 
		.s57 { fill: url(#g29) } 
		.s58 { fill: url(#g30) } 
		.s59 { fill: #000000 } 
		.s60 { fill: #ec7531 } 
	</style>
	<g id="Layer">
		<path id="Layer" class="s0" d="m532.1 35.9c-56.1 23.2-83.1 10.2-107.4-6.2 0-0.2 0.1-0.6 0-1 24.3 16.4 51.8 29.5 107.9 6.3-0.4 0.4-0.4 0.6-0.5 0.9z"/>
		<path id="Layer" class="s1" d="m420.4 30.9l2-1.4-27.4 95.2-2.1 1.6v-0.2l27.5-95.2z"/>
		<path id="Layer" class="s2" d="m397 125.7c-0.8-0.5-1.4-1.4-2.2-1.1l27.5-95.1c0.4-0.2 1.5-0.6 2.5 0.2z"/>
		<path id="Layer" fill-rule="evenodd" class="s1" d="m422.6 28.8l-0.2 0.7-2 1.5c0.1-0.7 1.6-1.8 2.1-2.1q0.1-0.1 0.1-0.1z"/>
		<path id="Layer" class="s3" d="m424.7 29.7c-1.1-0.7-2-0.4-2.4-0.2 0-0.2 0.2-0.6 0.2-0.6 0.9-0.6 1.3-0.6 2.2-0.2 0.1 0.3 0.1 0.6 0 1z"/>
		<path id="Layer" fill-rule="evenodd" class="s4" d="m534.2 36.6c0 0-0.7-0.9-2.2-0.6 0.2-0.3 0.2-0.7 0.6-1 0.9-0.1 1.4 0.1 1.5 0.3 0.2 0.1 0.2 0.2 0.2 0.2 0.1 0.6-0.1 1.1-0.1 1.1z"/>
		<path id="Layer" fill-rule="evenodd" class="s5" d="m534.1 35.3l2.3 1.8c0.1 0.6-0.2 1.2-0.2 1.2l-2.2-1.8c0 0 0.3-0.6 0.1-1.2z"/>
		<path id="Layer" class="s6" d="m506.3 132l27.7-95.6 2.3 1.8-27.9 95.7-2.1-1.9z"/>
		<path id="Layer" fill-rule="evenodd" class="s7" d="m508.9 134.6c0.1-0.6-0.5-1-0.5-1l27.9-95.5c0 0 0.4 0.4 0.5 0.7z"/>
		<path id="Layer" fill-rule="evenodd" class="s8" d="m536.8 38.8c0 0-0.1-0.2-0.5-0.6 0.2-0.9 0-1.1 0-1.1h0.1c0 0 0.7 0.6 0.4 1.7z"/>
		<path id="Layer" fill-rule="evenodd" class="s6" d="m508 135.5c-15 6.8-29.2 10.3-42.4 11.4-22.7 2.6-41.1-2.3-56.2-9.7-5.8-2.7-11.1-5.8-15.8-8.9l0.3-0.2c4.7 3.2 9.9 6.3 15.5 9.1 15.3 7 34.4 11.6 56.2 9.7 12.5-1.4 26.2-5.1 41.5-11.8 0.4 0.3 0.9 0.4 0.9 0.4z"/>
		<path id="Layer" class="s9" d="m505 133.7c0 0-1.1-1-0.9-2.4 1.4-0.4 2.4 0.5 2.4 0.5 0 0-0.3 1.3-1.5 1.9z"/>
		<path id="Layer" fill-rule="evenodd" class="s10" d="m506.5 131.8l2 1.8c0 0-0.3 1.1-1.5 1.6l-2.1-1.7c1.2-0.5 1.6-1.7 1.6-1.7z"/>
		<path id="Layer" class="s11" d="m504.4 131.3c-0.2 1.4 0.9 2.4 0.9 2.4-56.1 23.2-85.1 9.6-109.3-6.9 0.4-0.3 0.4-0.3 0.7-1.3 24.3 16.5 61 28 107.7 5.8z"/>
		<path id="Layer" fill-rule="evenodd" class="s7" d="m393.9 128.2l2.1-1.4c24.3 15.6 53 29.2 109 6.6l2.1 1.8c-53.9 23.7-88.3 10.5-113.2-7z"/>
		<path id="Layer" fill-rule="evenodd" class="s7" d="m508.9 134.6c-0.2 0.5-0.7 0.8-0.9 0.9 0 0-0.4 0-0.9-0.3 1.1-0.6 1.4-1.8 1.4-1.8 0 0 0.6 0.5 0.4 1.2z"/>
		<path id="Layer" fill-rule="evenodd" class="s7" d="m394 128.1l-0.3 0.3c0 0-1.4-0.8-0.8-2.3 0.1 1.5 1.1 2 1.1 2z"/>
		<path id="Layer" class="s12" d="m392.9 126.1l2-1.6c-0.1 1.6 1.2 2.2 1.2 2.2l-2.1 1.6c0 0-1.3-0.7-1.1-2.2z"/>
		<path id="Layer" class="s13" d="m394.8 124.5c0.7-0.2 1.3 0.5 2.2 1.2-0.3 1-0.5 0.8-1 1.1-0.5-0.3-1.3-1-1.2-2.3z"/>
		<path id="Layer" class="s14" d="m504.2 131.5l27.8-95.6c1.5-0.3 2.2 0.6 2.2 0.6l-27.7 95.3c0 0-1.1-0.8-2.3-0.3z"/>
		<path id="Layer" class="s15" d="m532.1 35.9c-56.1 23.2-83.1 10.1-107.4-6.2l-27.7 96c24.3 16.4 53.6 30 107.5 5.9z"/>
		<path id="Layer" fill-rule="evenodd" class="s16" d="m244.6 225.1c0.2 0 0.5-0.1 0.5-0.1 0.4 0.2 0.7 0.4 0.7 0.4 0 0-0.6 0.2-1.2-0.3z"/>
		<path id="Layer" class="s16" d="m348.7 230c0 0 0.4 0.3 0.8 0.2l-1.7 1c-0.5 0.3-1.1-0.1-1.1-0.1z"/>
		<path id="Layer" class="s16" d="m245.1 225c0 0-0.3 0.1-0.5 0.1l-1.8-1.4h-0.1c0.3 0 0.6 0 0.7 0z"/>
		<path id="Layer" class="s17" d="m349.6 228.6c0.2 0.2 0.4 0.3 0.6 0.7-0.1 0.5-0.5 0.8-0.8 1-0.3 0-0.8-0.3-0.8-0.3 0.3-0.2 0.8-0.5 1-1.4z"/>
		<path id="Layer" class="s17" d="m270.2 126.9h-0.6 0.6z"/>
		<path id="Layer" class="s17" d="m269.6 126.8l0.3 0.1-27.3 95.6-0.3-0.1 27.3-95.6z"/>
		<path id="Layer" fill-rule="evenodd" class="s17" d="m242.8 223.7c-0.4-0.3-0.6-0.8-0.5-1.3l0.3-0.2c-0.1 0.8 0.4 1.3 0.8 1.5 0 0-0.3 0.1-0.6 0z"/>
		<path id="Layer" class="s18" d="m348.7 230.1c-24.4-16.4-49.7-29-105.3-6.4-0.3-0.2-0.9-0.8-0.8-1.5 56.5-24 82.7-10 107.1 6.5-0.3 0.8-0.8 1.1-1 1.4z"/>
		<path id="Layer" fill-rule="evenodd" class="s16" d="m245 224.9c53.5-20.9 77.5-9.5 101.9 6.2-14.6-9.4-29.6-17-50.4-17.1-13.8-0.1-30.2 3.5-50.7 11.4 0 0-0.4-0.2-0.8-0.5z"/>
		<path id="Layer" fill-rule="evenodd" class="s17" d="m348.7 230.1l-2 1c-24.3-15.7-49-26.5-101.6-6.1l-1.7-1.3c55.6-22.6 80.9-10.1 105.3 6.4z"/>
		<path id="Layer" fill-rule="evenodd" class="s16" d="m349.6 228.7l28.1-96.2c0.3 0.2 0.5 0.3 0.6 0.5l-28.1 96.3c-0.2-0.4-0.6-0.6-0.6-0.6z"/>
		<path id="Layer" fill-rule="evenodd" class="s19" d="m377.7 132.5c-24.3-16.5-51.8-28.4-107.8-5.6 0.1-0.4 0.2-0.7 0.2-0.7 56.3-23.2 83.5-10.9 107.8 5.6z"/>
		<g id="Layer">
			<g id="Clip-Path" clip-path="url(#cp1)">
				<path id="Layer" class="s20" d="m349.7 228.9c-24.4-16.4-50.9-29.9-107.2-6.6l27.6-96.2c56.2-23.3 83.3-10.1 107.6 6.4z"/>
			</g>
		</g>
		<path id="Layer" fill-rule="evenodd" class="s16" d="m377.9 131.8c0.4 0.3 0.5 0.8 0.4 1.2v0.1c-0.1-0.2-0.3-0.4-0.6-0.6z"/>
		<path id="Layer" fill-rule="evenodd" class="s21" d="m269.9 126.9l-0.3-0.1c0.1-0.4 0.4-0.5 0.5-0.6h0.1c0 0-0.1 0.2-0.3 0.7z"/>
		<path id="Layer" fill-rule="evenodd" class="s22" d="m381.4 116.5c-26.1-18.2-58.2-29.6-105.9-5.9l1.9 1.4c52.1-21.3 79.3-9.8 102.1 5.3z"/>
		<path id="Layer" fill-rule="evenodd" class="s23" d="m382.4 115.1l27.6-95.6c0.3 0.3 0.5 0.5 0.6 0.6l-27.7 95.6c-0.1-0.4-0.5-0.6-0.5-0.6z"/>
		<path id="Layer" fill-rule="evenodd" class="s23" d="m277.4 111.9c8.9-3.6 17.1-6.3 24.7-8.1 1.9-0.5 3.5-0.9 5.5-1.3 1.8-0.3 3.5-0.7 5.3-0.9 2.7-0.5 5.3-0.8 7.9-1 2.2-0.2 4.3-0.3 6.4-0.3q3-0.1 5.9 0.1 2.6 0.1 5.1 0.4 2.1 0.3 4.1 0.6 4.3 0.7 8.3 1.8c10.8 3.1 20.3 8.3 29.1 14.1 0 0.1-0.3 0-0.3-0.1-0.1 0-0.2 0-0.2-0.1-11.9-7.5-24.7-14.1-40.5-16-16.1-2-34.9 0.8-60.2 10.9 0 0-0.6 0.2-0.8 0.2-0.3 0.1-0.2-0.1-0.3-0.3z"/>
		<path id="Layer" class="s23" d="m381.4 116.5c0 0 0.4 0.2 0.8 0.1l-1.8 0.8c-0.4 0.2-1-0.1-1-0.1z"/>
		<path id="Layer" class="s23" d="m277.5 112c0 0 0.1 0.1 0.2 0.3-0.2 0-0.2 0-0.7-0.2 0 0-0.1-0.1-0.2-0.1l-1.8-1.4-0.1-0.2c0.2 0 0.4 0.2 0.5 0.1z"/>
		<path id="Layer" class="s22" d="m382.4 115.1c0.2 0.1 0.4 0.2 0.6 0.6-0.1 0.5-0.6 0.8-0.8 0.9-0.4 0.2-0.9-0.2-0.9-0.2 0.3-0.2 0.8-0.5 1.1-1.3z"/>
		<path id="Layer" fill-rule="evenodd" class="s22" d="m410.2 18.9c0.4 0.3 0.5 0.8 0.4 1.2v0.1c-0.1-0.2-0.2-0.4-0.6-0.6z"/>
		<path id="Layer" fill-rule="evenodd" class="s22" d="m274.9 110.5c-0.3-0.2-0.5-1-0.4-1.5l0.4-0.1c-0.2 0.7 0.3 1.5 0.7 1.7 0 0-0.3 0.2-0.7-0.1z"/>
		<g id="Layer">
			<g id="Clip-Path" clip-path="url(#cp2)">
				<path id="Layer" class="s24" d="m302.8 12.5v0.1h-0.6v-0.1h0.6z"/>
			</g>
			<g id="Clip-Path" clip-path="url(#cp3)">
				<path id="Layer" class="s25" d="m302.8 12.6h-0.6 0.6z"/>
			</g>
			<g id="Clip-Path" clip-path="url(#cp4)">
				<path id="Layer" class="s26" d="m302.8 12.6v0.1h-0.6v-0.1h0.6z"/>
			</g>
			<g id="Clip-Path" clip-path="url(#cp5)">
				<path id="Layer" class="s27" d="m302.8 12.7h-0.6 0.6z"/>
			</g>
			<g id="Clip-Path" clip-path="url(#cp6)">
				<path id="Layer" class="s28" d="m302.8 12.7v0.1h-0.6v-0.1h0.6z"/>
			</g>
			<g id="Clip-Path" clip-path="url(#cp7)">
				<path id="Layer" class="s29" d="m302.8 12.8h-0.6 0.6z"/>
			</g>
			<g id="Clip-Path" clip-path="url(#cp8)">
				<path id="Layer" class="s30" d="m302.8 12.8h-0.6 0.6z"/>
			</g>
			<g id="Clip-Path" clip-path="url(#cp9)">
				<path id="Layer" class="s31" d="m302.8 12.8v0.1h-0.6v-0.1h0.6z"/>
			</g>
			<g id="Clip-Path" clip-path="url(#cp10)">
				<path id="Layer" class="s32" d="m302.8 12.9h-0.6 0.6z"/>
			</g>
			<g id="Clip-Path" clip-path="url(#cp11)">
				<path id="Layer" class="s33" d="m302.8 12.9v0.1h-0.6v-0.1h0.6z"/>
			</g>
			<g id="Clip-Path" clip-path="url(#cp12)">
				<path id="Layer" class="s34" d="m302.8 13h-0.6 0.6z"/>
			</g>
			<g id="Clip-Path" clip-path="url(#cp13)">
				<path id="Layer" class="s35" d="m302.8 13v0.1h-0.6v-0.1h0.6z"/>
			</g>
			<g id="Clip-Path" clip-path="url(#cp14)">
				<path id="Layer" class="s36" d="m302.8 13.1h-0.6 0.6z"/>
			</g>
			<g id="Clip-Path" clip-path="url(#cp15)">
				<path id="Layer" class="s37" d="m302.8 13.1h-0.6 0.6z"/>
			</g>
			<g id="Clip-Path" clip-path="url(#cp16)">
				<path id="Layer" class="s38" d="m302.8 13.1v0.1h-0.6v-0.1h0.6z"/>
			</g>
			<g id="Clip-Path" clip-path="url(#cp17)">
				<path id="Layer" class="s22" d="m302.8 13.2h-0.6 0.6z"/>
			</g>
		</g>
		<path id="Layer" class="s39" d="m381.4 116.5c-15-9.8-29-17.9-51.3-18.6-16.2 0.4-28.7 2.4-54.6 12.7-0.4-0.2-0.8-0.7-0.7-1.5 22.4-9.5 40.2-13.6 55-13.5 22.4 0.2 37.9 9.6 52.6 19.5-0.3 0.8-0.7 1.2-1 1.4z"/>
		<path id="Layer" fill-rule="evenodd" class="s22" d="m302.2 13.1l0.3 0.1-27.6 95.9c-0.1 0-0.4-0.1-0.4-0.1z"/>
		<path id="Layer" fill-rule="evenodd" class="s40" d="m410 19.7c-24.3-16.5-51.6-29.3-107.5-6.4 0.1-0.5 0.2-0.7 0.2-0.7 56.3-23.3 83.2-10.1 107.5 6.3z"/>
		<path id="Layer" class="s41" d="m382.4 115.1c-14.7-9.9-30.5-19.1-52.9-19.3-14.8-0.1-32.4 4.1-54.7 13.4l27.7-96c56.2-23.2 83.2-10.1 107.6 6.4z"/>
		<path id="Layer" fill-rule="evenodd" class="s42" d="m477 246.9c-0.3 0.5-0.8 0.8-1 0.9 0 0-0.5 0.1-0.9-0.3 1.1-0.6 1.4-1.8 1.4-1.8 0 0 0.6 0.6 0.5 1.2z"/>
		<path id="Layer" fill-rule="evenodd" class="s43" d="m477 246.9c0-0.5-0.6-1-0.6-1l26.7-92.9c0 0 0.4 0.4 0.6 0.7z"/>
		<path id="Layer" fill-rule="evenodd" class="s44" d="m503.6 153.7c0 0 0-0.2-0.5-0.6 0.2-0.9 0-1.1 0-1.1h0.1c0 0 0.7 0.7 0.4 1.7z"/>
		<path id="Layer" fill-rule="evenodd" class="s45" d="m501 151.5c0 0-0.8-0.9-2.3-0.6 0.1-0.3 0.2-0.8 0.7-1 0.9-0.1 1.4 0.2 1.6 0.3 0.1 0.1 0.1 0.2 0.1 0.2 0.1 0.6-0.1 1.1-0.1 1.1z"/>
		<path id="Layer" fill-rule="evenodd" class="s46" d="m501 150.2l2.2 1.8c0.1 0.6-0.1 1.2-0.1 1.2l-2.2-1.8c0 0 0.2-0.6 0.1-1.2z"/>
		<path id="Layer" class="s47" d="m474.1 244.2l26.8-92.9 2.2 1.8-26.6 92.9-0.1 0.2-2.3-2z"/>
		<path id="Layer" class="s48" d="m472.7 245.9c0 0-1-1-0.8-2.4 1.4-0.4 2.3 0.5 2.3 0.5 0 0-0.2 1.3-1.5 1.9z"/>
		<path id="Layer" class="s49" d="m498.8 151c-56.4 19.2-82.4 7.7-106.7-8.7 0.1-0.2 0.2-0.5 0.1-0.9 24.3 16.3 51.2 27.5 107.2 8.5-0.4 0.3-0.5 0.7-0.6 1.1z"/>
		<path id="Layer" class="s43" d="m387.9 143.5l2-1.4-27.3 94.7-2.1 1.7v-0.2l27.4-94.8z"/>
		<path id="Layer" class="s50" d="m364.9 237.3c-0.8-0.5-1.7-0.8-2.5-0.5l27.4-94.7c0.4-0.2 1.4-0.4 2.4 0.3z"/>
		<path id="Layer" class="s51" d="m471.9 243.7l26.8-92.8 0.2-0.1c1.4-0.2 2.1 0.6 2.1 0.6l-26.7 92.7c0 0-1.2-0.9-2.4-0.4z"/>
		<path id="Layer" fill-rule="evenodd" class="s47" d="m476 247.8c-55.1 23.5-90.4 9.1-114.7-7.3l0.2-0.2c24.4 16.3 61.8 30 113.6 7.1 0.4 0.4 0.9 0.4 0.9 0.4z"/>
		<path id="Layer" fill-rule="evenodd" class="s52" d="m474.2 244l2.3 2c0 0-0.3 1.1-1.5 1.6l-2.3-1.9c1.2-0.6 1.5-1.7 1.5-1.7z"/>
		<path id="Layer" class="s53" d="m472.2 243.5c-0.2 1.4 0.8 2.4 0.8 2.4-56.1 23.2-84.9 9.3-109.2-7.2 0.4-0.3 0.6-0.5 0.9-1.5l0.4-0.1c25.1 15.5 57.2 27.7 107.1 6.4z"/>
		<path id="Layer" fill-rule="evenodd" class="s54" d="m361.5 240.4l2.3-1.7c22.3 13.9 53.5 29.2 109 6.9l2.3 1.9c-51.6 22.9-89.2 9.2-113.6-7.1z"/>
		<path id="Layer" fill-rule="evenodd" class="s43" d="m361.7 240.4l-0.2 0.2c0 0-1.5-0.8-1-2.3 0.1 1.5 1.2 2.1 1.2 2.1z"/>
		<path id="Layer" class="s55" d="m360.5 238.3l2.1-1.7c-0.1 1.5 1.4 2.1 1.4 2.1l-2.3 1.8c0 0-1.3-0.7-1.2-2.2z"/>
		<path id="Layer" class="s56" d="m362.5 236.6c0.7-0.3 1.4 0.1 2.2 0.5-0.3 1-0.4 1.4-0.9 1.7-0.5-0.3-1.5-0.9-1.3-2.2z"/>
		<g id="Layer">
			<g id="Clip-Path" clip-path="url(#cp18)">
				<path id="Layer" class="s57" d="m392.3 141.7c24.4 16.4 51.4 29.5 107.6 6.3l-27.7 95.6c-56.2 23.2-83.2 10.1-107.5-6.4z"/>
			</g>
		</g>
		<path id="Layer" fill-rule="evenodd" class="s49" d="m390.1 141.5l-0.3 0.7-2 1.4c0.2-0.6 1.7-1.7 2.2-2.1 0 0 0.1 0 0.1 0z"/>
		<path id="Layer" class="s58" d="m392.2 142.3c-1.2-0.6-2.1-0.2-2.5 0 0.1-0.3 0.3-0.8 0.3-0.8 0.9-0.5 1.3-0.5 2.2-0.1 0.1 0.4 0 0.7 0 0.9z"/>
		<path id="Layer" class="s59" d="m27.3 257.7v-28l-10.4 28h-2.7l-10.5-28v28h-3.4v-32h5.9l9.6 25.5 9.5-25.5h5.9v32h-3.9"/>
		<path id="Layer" class="s59" d="m38.8 257.7v-23.7h3.7v23.7zm-0.1-28v-4h4v4z"/>
		<path id="Layer" class="s59" d="m48 245.9c0-7.5 4-12.5 10.2-12.5 4.8 0 8 2.9 8.9 8.2l-3.3 0.7c-0.3-1.9-0.6-2.7-1.2-3.6-1.1-1.5-2.7-2.3-4.5-2.3-3.9 0-6.3 3.6-6.3 9.4 0 5.9 2.3 9.5 6.3 9.5 2.9 0 4.9-2 5.7-5.9l3.3 0.5c-0.5 2.9-1.2 4.3-2.8 5.9-1.6 1.7-3.7 2.5-6.3 2.5-6.1 0-10-4.9-10-12.4z"/>
		<path id="Layer" class="s59" d="m72.2 257.7v-23.7h3.2v5.5c1.2-2.3 1.6-3 2.5-4.1 1-1.3 2.8-2.1 4.6-2.1 0.3 0 0.8 0.1 1.4 0.1v3.5c-4.5-0.3-7.9 3.2-8 8.2v12.6z"/>
		<path id="Layer" fill-rule="evenodd" class="s59" d="m85.5 245.8c0-7.4 4.3-12.4 10.7-12.4 6.4 0 10.5 5 10.5 12.7 0 7.1-4.5 12.2-10.9 12.2-6.2 0-10.3-5-10.3-12.5zm5.6-6.8c-1 1.5-1.6 3.8-1.6 6.7 0 6.1 2.4 9.6 6.6 9.6 4.1 0 6.6-3.5 6.6-9.4 0-3.2-0.5-5.3-1.7-6.9-1.2-1.6-3.1-2.6-5-2.6-1.9 0-3.8 1-4.9 2.6z"/>
		<path id="Layer" class="s59" d="m111.5 255.7c-1.3-1.1-1.9-2.1-2.5-4.2l3.5-0.7c0.4 1.4 0.8 2.1 1.5 2.7 1.4 1.1 3.7 1.8 5.9 1.8 3.3 0 5.5-1.6 5.5-3.9 0-1.9-1.4-3.1-4.1-3.6l-4.9-0.9c-4.1-0.8-6.4-3.2-6.4-6.6 0-4.1 3.5-6.9 8.9-6.9 4.9 0 8.2 2 9.3 6l-3.4 0.7c-1.1-2.5-3-3.7-6-3.7-3.1 0-5.1 1.4-5.1 3.5 0 1.8 1.2 2.8 3.7 3.3l4.7 0.8c4.8 0.9 7.2 3.2 7.2 7 0 4.4-3.9 7.3-9.8 7.3q-5 0-8-2.6z"/>
		<path id="Layer" fill-rule="evenodd" class="s59" d="m132.6 245.8c0-7.4 4.4-12.4 10.7-12.4 6.5 0 10.6 5 10.6 12.7 0 7.1-4.6 12.2-11 12.2-6.1 0-10.3-5-10.3-12.5zm5.7-6.8c-1.1 1.5-1.6 3.8-1.6 6.7 0 6.1 2.4 9.6 6.5 9.6 4.2 0 6.7-3.5 6.7-9.4 0-3.2-0.6-5.3-1.7-6.9-1.2-1.6-3.1-2.6-5-2.6-1.9 0-3.8 1-4.9 2.6z"/>
		<path id="Layer" class="s59" d="m160 257.7v-20.8h-4.2v-2.9h4.2c0.1-2.9 0.3-3.9 0.8-5.3 0.8-2.3 3.2-3.7 6.3-3.7 1 0 1.8 0.1 3.5 0.3v3c-1-0.3-1.5-0.3-2.2-0.3-2.5 0-4 0.7-4.5 2.2-0.5 1-0.5 1.2-0.5 3.8h5.8v2.9h-5.8v20.8c0 0-3.4 0-3.4 0z"/>
		<path id="Layer" class="s59" d="m175.6 251.1v-14.2h-4.2v-2.9h4.2l0.1-5.9 3.5-0.3v6.2h5.3v2.9h-5.3v14.8c0 2.5 1.3 3.7 3.8 3.7 0.9 0 1.5 0 2.8-0.3v3c-1.6 0.2-2.4 0.2-3.5 0.2-4.4 0-6.7-2.4-6.7-7.2z"/>
		<path id="Layer" fill-rule="evenodd" class="s59" d="m186.6 235.2c0-2.3 1.8-4.1 4.2-4.1 2.2 0 4 1.9 4 4.1 0 2.3-1.8 4.2-4.1 4.2-2.3 0-4.1-1.9-4.1-4.2zm1.5-2.3c-0.6 0.6-0.9 1.5-0.9 2.3 0 2 1.5 3.6 3.5 3.6 2 0 3.5-1.6 3.5-3.6 0-1.9-1.5-3.5-3.4-3.5q-1.7 0-2.7 1.2zm3.8 4.7l-1-2h-1.3v2h-0.7v-4.8h2c1 0 1.7 0.6 1.7 1.4 0 0.6-0.4 1-0.9 1.2l1 2.2c0 0-0.8 0-0.8 0zm-2.3-2.6h1.3c0.6 0 0.9-0.3 0.9-0.8 0-0.5-0.3-0.8-0.9-0.8h-1.3z"/>
		<path id="Layer" class="s60" d="m573.3 319l-17.2-29.1 14.5-22.2h-9.7l-9.6 15.1-8.4-15.1h-13.3l14.8 24.8-17.1 26.5h10l11.8-18.8 10.9 18.8h13.3z"/>
		<path id="Layer" fill-rule="evenodd" class="s60" d="m576.1 336.3v-68.6h11.1v8.9c3.6-6.8 8.6-10 15.6-10 5.6 0 9.9 2.2 13.1 6.8 3.6 5.2 5.5 11.9 5.5 19.6 0 8.2-2.1 15.4-6 20.7-3.2 4.2-7.5 6.3-13.4 6.3-6.5 0-10.9-2.5-14.2-8.2v24.5zm11.8-38.3c0 7.4 4.6 12.9 11.1 12.9 6.3 0 10.2-6.4 10.2-17.1 0-11.2-3.8-17.7-10.3-17.7-6.5 0-11 6.1-11 14.6z"/>
		<path id="Layer" class="s59" d="m80.5 363.7l-19.2-70.5-17.4 70.5h-17.7l-26.2-96h18.4l18.5 70 17.2-70h17.6l19.2 70 18.1-70h15.3l-25.7 96h-18.1"/>
		<path id="Layer" class="s59" d="m129.1 363.7v-71h16v71zm0-79.3v-16.7h16v16.7z"/>
		<path id="Layer" class="s59" d="m201.4 363.7v-44.3c0-8.7-4.3-14.1-11.1-14.1-5.3 0-10.3 3.4-13.1 8.8-1.7 3.4-2.6 7.7-2.6 13.2v36.4h-15.9v-71h14.5v16.5c5.9-12.9 12.1-17.9 21.7-17.9 8.2 0 16.3 4.3 19.5 10.5 2.1 4.2 3 8.8 3 16.1v45.8z"/>
		<path id="Layer" fill-rule="evenodd" class="s59" d="m234.3 356.1c-4.8-6.3-8.1-17.9-8.1-28.8 0-11.7 3.6-22.5 9.9-29.7 4.5-5.1 10.5-7.7 18-7.7 9.1 0 15.2 4 19 12.5v-34.7h16v96h-15v-14.2c-4.4 10.8-10.8 15.7-20.8 15.7-7.8 0-14.4-3.2-19-9.1zm8.9-27.9c0 15.5 5.2 23.9 14.8 23.9 8.5 0 15.1-8 15.1-18.2v-12.1c0-6.2-1-9.6-3.7-12.9-2.9-3.5-6.8-5.4-10.9-5.4-9.8 0-15.3 8.8-15.3 24.7z"/>
		<path id="Layer" fill-rule="evenodd" class="s59" d="m305 352.1c-4.8-6.9-7.1-15-7.1-24.1 0-21.6 13.7-36.7 33.3-36.7 11.9 0 20.6 4.6 26.9 14.5 4.2 6.8 5.9 13.3 5.9 22.5 0 21.8-13.8 36.9-33.7 36.9-10.9 0-19.6-4.5-25.3-13.1zm9.9-23.9c0 15.2 5.8 23.9 16 23.9 10.3 0 16.1-8.7 16.1-24.2 0-15.3-5.6-23.5-15.8-23.5-10.4 0-16.3 8.5-16.3 23.8z"/>
		<path id="Layer" class="s59" d="m425.6 363.7l-12.8-49.8-12.7 49.8h-14.8l-21.9-71h17l14.1 47.8 12.1-47.8h14.6l12.5 47.8 13.7-47.8h13.5l-20.9 71h-14.4"/>
		<path id="Layer" class="s59" d="m464.9 358.5c-3.7-2.8-5.6-5.6-7.3-11l15-2.9c3 6.3 7 8.6 15.7 8.6 9 0 14.3-3.1 14.3-8.8 0-3.4-3-6.2-7.7-7l-13-2.6c-14.7-2.7-21.4-9.4-21.4-20.9 0-5.6 2-10.9 5.6-14.8 4.9-5.4 11.8-7.8 21.7-7.8 14.7 0 24.1 5.6 27.4 16.4l-14.4 3c-1.9-5.7-5.6-8-13-8-7.6 0-12.5 3-12.5 7.6 0 4.2 3 6.6 10.2 8.1l15.3 3.1c11.8 2.3 17.8 9.4 17.8 20.6 0 14.1-12.1 23.1-30.9 23.1-9.1 0-16.9-2.3-22.8-6.7z"/>
		<path id="Layer" fill-rule="evenodd" class="s59" d="m512.2 295.1c0-2.3 1.9-4.1 4.2-4.1 2.2 0 4.1 1.8 4.1 4.1 0 2.3-1.9 4.1-4.2 4.1-2.3 0-4.1-1.8-4.1-4.1zm1.5-2.4c-0.6 0.7-0.9 1.5-0.9 2.4 0 2 1.5 3.5 3.5 3.5 2 0 3.6-1.5 3.6-3.5 0-1.9-1.6-3.5-3.5-3.5q-1.7 0-2.7 1.1zm3.8 4.8l-0.9-2h-1.4v2h-0.7v-4.8h2.1c0.9 0 1.6 0.6 1.6 1.4 0 0.5-0.3 1-0.9 1.2l1 2.2c0 0-0.8 0-0.8 0zm-2.3-2.6h1.3c0.6 0 0.9-0.3 0.9-0.8 0-0.5-0.3-0.8-0.8-0.8h-1.4z"/>
		<path id="Layer" class="s59" d="m494.6 245.8v-5.9h-1.9v-0.8h4.6v0.8h-1.9v5.9h-0.8"/>
		<path id="Layer" class="s59" d="m503.9 245.8v-5.8l-2.2 5.8h-0.5l-2.2-5.8v5.8h-0.7v-6.7h1.2l2 5.3 2-5.3h1.2v6.7h-0.8"/>
	</g>
</svg>